<svg width="294" height="294" viewBox="0 0 294 294" fill="none" xmlns="http://www.w3.org/2000/svg">
<path d="M142.659 247.231C206.747 247.231 258.699 195.278 258.699 131.191C258.699 67.1039 206.747 15.151 142.659 15.151C78.5722 15.151 26.6193 67.1039 26.6193 131.191C26.6193 195.278 78.5722 247.231 142.659 247.231Z" fill="#DED8D1"/>
<path d="M33.4254 246.297H240.991" stroke="#2B2B2B" stroke-width="0.9052" stroke-miterlimit="10"/>
<path d="M99.0509 240.824C101.512 232.312 102.378 224.731 102.076 217.996C100.433 181.024 63.728 169.52 63.728 169.52C63.728 169.52 57.7504 186.039 62.6455 204.07C66.314 217.578 76.086 231.934 99.0509 240.824Z" fill="white"/>
<path d="M67.4313 176.167L98.8616 239.613C99.0022 239.897 98.5376 240.064 98.3977 239.781L66.9673 176.335C66.8268 176.051 67.2913 175.885 67.4313 176.167Z" fill="#471B36"/>
<path d="M80.322 203.119L84.4056 191.249C84.849 189.949 85.2929 188.649 85.7363 187.348C85.8392 187.047 86.2878 187.253 86.1861 187.551L81.4797 201.349C81.0364 202.649 81.2157 202.023 80.7718 203.323C80.6689 203.624 80.2202 203.417 80.322 203.119Z" fill="#471B36"/>
<path d="M89.5406 221.729L93.6243 209.858C94.0677 208.558 94.5116 207.258 94.955 205.958C95.0579 205.657 95.5065 205.863 95.4048 206.161L90.6984 219.959C90.2551 221.259 90.4344 220.632 89.9905 221.932C89.8882 222.233 89.4389 222.027 89.5406 221.729Z" fill="#471B36"/>
<path d="M73.6846 216.921L85.6022 220.865C86.9052 221.3 88.2082 221.735 89.5112 222.17C89.8129 222.27 89.9205 221.789 89.6218 221.689L75.7932 217.073C74.4902 216.638 75.0976 216.876 73.7946 216.44C73.4935 216.339 73.3859 216.821 73.6846 216.921Z" fill="#471B36"/>
<path d="M64.2384 197.853L76.156 201.797C77.459 202.232 78.762 202.667 80.065 203.102C80.3666 203.202 80.4743 202.721 80.1755 202.621L66.347 198.005C65.044 197.57 65.6514 197.807 64.3484 197.372C64.0473 197.272 63.9397 197.754 64.2384 197.853Z" fill="#471B36"/>
<path d="M99.382 240.871C96.0851 232.647 92.1025 226.139 87.7202 221.015C63.6745 192.883 27.663 206.4 27.663 206.4C27.663 206.4 33.1155 223.1 48.0696 234.3C59.2721 242.692 75.8096 247.995 99.382 240.871Z" fill="#471B36"/>
<path d="M34.6714 209.362L98.4876 240.033C98.7728 240.17 98.5094 240.588 98.2254 240.451L34.4091 209.78C34.124 209.643 34.3874 209.225 34.6714 209.362Z" fill="white"/>
<path d="M61.4177 222.675L57.3323 210.805C56.8819 209.507 56.4315 208.21 55.9811 206.911C55.877 206.611 56.3574 206.497 56.4609 206.795L61.2413 220.567C61.6918 221.865 61.4471 221.26 61.8976 222.558C62.0016 222.859 61.5206 222.973 61.4177 222.675Z" fill="white"/>
<path d="M80.1356 231.671L76.0502 219.801C75.5997 218.504 75.1493 217.206 74.6989 215.908C74.5949 215.607 75.0753 215.494 75.1787 215.791L79.9592 229.563C80.4096 230.861 80.165 230.257 80.6154 231.554C80.7195 231.856 80.2391 231.97 80.1356 231.671Z" fill="white"/>
<path d="M64.6782 237.639L76.4993 233.414C77.7941 232.955 79.0889 232.496 80.3837 232.037C80.6835 231.931 80.4719 231.484 80.1749 231.59L66.434 236.46C65.1392 236.919 65.7642 236.732 64.4694 237.192C64.1696 237.298 64.3812 237.744 64.6782 237.639Z" fill="white"/>
<path d="M45.4994 228.421L57.3206 224.196C58.6153 223.737 59.9101 223.278 61.2049 222.819C61.5048 222.713 61.2931 222.266 60.9962 222.372L47.2552 227.242C45.9604 227.701 46.5855 227.514 45.2907 227.973C44.9908 228.08 45.2025 228.526 45.4994 228.421Z" fill="white"/>
<path d="M190.776 242.922C188.315 234.41 187.449 226.829 187.751 220.094C189.394 183.122 226.099 171.618 226.099 171.618C226.099 171.618 232.077 188.137 227.181 206.168C223.514 219.676 213.741 234.032 190.776 242.922Z" fill="white"/>
<path d="M222.396 178.265L190.965 241.711C190.825 241.995 191.289 242.162 191.429 241.879L222.86 178.433C223.001 178.15 222.536 177.983 222.396 178.265Z" fill="#471B36"/>
<path d="M209.505 205.217L205.421 193.347C204.978 192.047 204.534 190.747 204.091 189.446C203.988 189.145 203.539 189.351 203.641 189.649L208.347 203.447C208.791 204.748 208.611 204.121 209.055 205.421C209.158 205.722 209.607 205.516 209.505 205.217Z" fill="#471B36"/>
<path d="M200.286 223.827L196.203 211.956C195.759 210.656 195.316 209.356 194.872 208.056C194.769 207.755 194.32 207.961 194.422 208.259L199.129 222.057C199.572 223.357 199.393 222.73 199.836 224.03C199.939 224.331 200.388 224.125 200.286 223.827Z" fill="#471B36"/>
<path d="M216.142 219.019L204.225 222.963C202.922 223.398 201.619 223.833 200.316 224.268C200.014 224.368 199.906 223.887 200.205 223.787L214.034 219.171C215.337 218.736 214.729 218.974 216.032 218.538C216.333 218.437 216.441 218.919 216.142 219.019Z" fill="#471B36"/>
<path d="M225.589 199.951L213.671 203.895C212.368 204.33 211.065 204.765 209.762 205.2C209.46 205.3 209.353 204.819 209.651 204.719L223.48 200.103C224.783 199.668 224.176 199.905 225.479 199.47C225.78 199.37 225.887 199.852 225.589 199.951Z" fill="#471B36"/>
<path d="M190.445 242.97C193.742 234.746 197.724 228.238 202.107 223.114C226.152 194.981 262.164 208.499 262.164 208.499C262.164 208.499 256.711 225.198 241.757 236.399C230.555 244.79 214.017 250.093 190.445 242.97Z" fill="#471B36"/>
<path d="M255.156 211.46L191.339 242.131C191.054 242.268 191.318 242.686 191.602 242.549L255.418 211.878C255.703 211.741 255.44 211.323 255.156 211.46Z" fill="white"/>
<path d="M228.409 224.773L232.495 212.903C232.945 211.605 233.395 210.308 233.846 209.009C233.95 208.709 233.469 208.595 233.366 208.893L228.586 222.665C228.135 223.963 228.38 223.358 227.929 224.656C227.825 224.958 228.306 225.071 228.409 224.773Z" fill="white"/>
<path d="M209.691 233.77L213.777 221.9C214.227 220.602 214.678 219.305 215.128 218.006C215.232 217.706 214.752 217.592 214.648 217.89L209.868 231.662C209.417 232.96 209.662 232.355 209.212 233.653C209.107 233.954 209.588 234.068 209.691 233.77Z" fill="white"/>
<path d="M225.149 239.737L213.328 235.512C212.033 235.053 210.738 234.594 209.443 234.135C209.143 234.029 209.355 233.582 209.652 233.688L223.393 238.558C224.688 239.017 224.063 238.83 225.357 239.29C225.657 239.396 225.446 239.842 225.149 239.737Z" fill="white"/>
<path d="M244.328 230.519L232.507 226.294C231.212 225.835 229.917 225.376 228.623 224.917C228.323 224.811 228.534 224.364 228.831 224.47L242.572 229.34C243.867 229.799 243.242 229.612 244.537 230.072C244.836 230.178 244.625 230.624 244.328 230.519Z" fill="white"/>
<path d="M206.399 143.361C204.139 148.061 198.683 148.987 193.994 148.701C190.433 148.484 187.252 147.918 183.865 149.405C181.389 150.495 179.155 152.083 176.631 153.078C171.223 155.2 166.386 154.02 162.544 149.744C160.866 147.881 159.469 145.637 157.204 144.415C154.817 143.123 151.912 143.044 149.271 142.832C143.911 142.409 139.026 141.351 134.787 137.815C130.4 134.159 127.617 129.015 126.267 123.522C123.568 112.509 125.42 99.586 131.49 89.9705C132.655 88.1289 139.27 74.5496 155.511 76.3065C168.201 77.6772 174.62 86.5042 174.366 95.0032C174.287 97.5539 173.265 100.877 174.89 103.153C176.446 105.333 179.526 104.836 181.881 104.936C187.66 105.18 191.031 108.662 192.28 114.15C193.036 117.447 193.163 120.685 195.46 123.368C197.407 125.639 199.995 127.263 202.149 129.322C205.827 132.846 208.859 138.255 206.399 143.361Z" fill="#2B2B2B"/>
<path d="M163.114 112.637L165.301 132.806L165.296 132.812H168.694C167.471 135.552 165.948 138.074 164.32 140.338C158.522 148.399 146.386 147.923 141.076 139.532C138.424 135.34 137.56 132.812 137.56 132.812H141.793L142.963 124.221L140.117 121.939C135.361 118.123 132.597 112.373 132.597 106.281V93.6037C141.917 95.891 156.728 87.806 156.728 87.806L159.857 99.2662V99.3132L159.874 99.2956C161.138 98.049 162.761 97.2728 164.461 97.1258C165.337 97.0435 166.236 97.1376 167.118 97.414C170.952 98.637 171.875 103.006 170.558 107.157C169.329 111.026 166.73 113.337 163.114 112.637Z" fill="white"/>
<path d="M138.564 103.464C138.615 102.255 137.771 101.237 136.679 101.19C135.586 101.144 134.658 102.086 134.607 103.295C134.555 104.504 135.399 105.522 136.492 105.568C137.585 105.615 138.512 104.672 138.564 103.464Z" fill="#2B2B2B"/>
<path d="M150.592 103.976C150.644 102.767 149.8 101.749 148.707 101.703C147.614 101.656 146.687 102.598 146.635 103.807C146.583 105.016 147.428 106.034 148.52 106.081C149.613 106.127 150.541 105.185 150.592 103.976Z" fill="#2B2B2B"/>
<path d="M138.438 98.3307C136.955 97.7891 135.251 97.9832 133.983 98.9557C133.731 99.1492 133.611 99.5202 133.813 99.7983C133.996 100.049 134.386 100.175 134.655 99.9688C134.78 99.873 134.909 99.7842 135.044 99.7036C135.109 99.6642 135.176 99.6272 135.245 99.5919C135.252 99.5884 135.261 99.5843 135.268 99.5807C135.304 99.5643 135.339 99.5484 135.376 99.5331C135.52 99.4714 135.668 99.4185 135.818 99.3744C135.893 99.352 135.969 99.3332 136.046 99.3144C136.059 99.3109 136.072 99.3079 136.082 99.3062C136.124 99.2985 136.166 99.2909 136.208 99.2844C136.364 99.2609 136.52 99.2456 136.676 99.2397C136.755 99.2368 136.833 99.2356 136.912 99.2374C136.951 99.2379 136.99 99.2397 137.029 99.2415C137.031 99.2415 137.03 99.2415 137.032 99.2415C137.036 99.2421 137.033 99.2421 137.043 99.2426C137.199 99.2591 137.354 99.2803 137.507 99.3132C137.584 99.3297 137.66 99.3485 137.735 99.3691C137.773 99.3797 137.811 99.3908 137.848 99.4026C137.859 99.4055 137.864 99.4067 137.868 99.4079C137.875 99.4108 137.879 99.412 137.889 99.4155C138.186 99.5243 138.56 99.4714 138.706 99.148C138.827 98.8769 138.757 98.4471 138.438 98.3307Z" fill="#2B2B2B"/>
<path d="M146.858 99.4949C146.976 99.8295 147.344 99.9142 147.65 99.8312C147.66 99.8283 147.664 99.8271 147.671 99.8254C147.676 99.8248 147.681 99.8236 147.691 99.8218C147.729 99.8136 147.767 99.8054 147.806 99.7983C147.883 99.7836 147.961 99.7718 148.038 99.7619C148.194 99.7424 148.35 99.7342 148.507 99.7313C148.516 99.7313 148.513 99.7307 148.518 99.7307C148.52 99.7307 148.519 99.7307 148.521 99.7307C148.56 99.7325 148.599 99.7342 148.638 99.7366C148.716 99.7419 148.795 99.7489 148.872 99.7589C149.028 99.7783 149.183 99.8065 149.335 99.8436C149.377 99.8536 149.418 99.8642 149.459 99.8759C149.469 99.8789 149.481 99.883 149.495 99.8877C149.569 99.913 149.643 99.9383 149.716 99.9671C149.862 100.024 150.005 100.089 150.144 100.163C150.179 100.181 150.213 100.201 150.247 100.219C150.254 100.223 150.262 100.228 150.269 100.232C150.334 100.273 150.398 100.316 150.46 100.36C150.587 100.452 150.708 100.552 150.824 100.658C151.074 100.887 151.474 100.794 151.677 100.56C151.903 100.3 151.814 99.92 151.579 99.706C150.399 98.6288 148.719 98.2907 147.195 98.704C146.866 98.7928 146.759 99.215 146.858 99.4949Z" fill="#2B2B2B"/>
<path d="M168.508 100.689C168.665 100.085 168.295 99.4173 167.736 99.1374C167.178 98.8575 166.486 98.9281 165.934 99.2191C165.381 99.5108 164.955 99.9994 164.629 100.533C163.951 101.643 163.674 102.992 163.859 104.279C164.461 103.576 165.573 103.426 166.396 103.848C167.219 104.271 167.735 105.18 167.797 106.102C167.859 107.025 167.507 107.946 166.943 108.679C166.379 109.413 165.616 109.972 164.804 110.416" stroke="#2B2B2B" stroke-width="0.9578" stroke-miterlimit="10"/>
<path d="M142.735 124.11C144.347 125.502 146.642 126.059 148.713 125.561C151.081 124.991 152.939 123.21 154.673 121.5" stroke="#2B2B2B" stroke-width="0.9578" stroke-miterlimit="10"/>
<path d="M144.516 115.583C146.692 114.852 148.422 112.92 148.91 110.676" stroke="#2B2B2B" stroke-width="0.9578" stroke-miterlimit="10"/>
<path d="M140.694 102.303C139.846 105.522 138.997 108.742 138.149 111.961C139.935 111.913 141.721 111.865 143.507 111.817" stroke="#2B2B2B" stroke-width="0.9578" stroke-miterlimit="10"/>
<path d="M177.442 229.622H114.825V251.444H177.442V229.622Z" fill="#2B2B2B"/>
<path d="M197.977 202.149L186.27 216.378H112.958V198.479C106.496 204.812 95.8527 203.63 90.9429 196.033L63.6715 153.856L77.6483 141.108L95.7939 163.911L105.819 146.488C110.688 138.027 119.714 132.812 129.475 132.812H137.56C137.56 132.812 138.424 135.34 141.076 139.532C146.385 147.923 158.522 148.399 164.319 140.338C165.948 138.074 167.471 135.552 168.694 132.812H169.547C181.407 132.812 191.914 140.473 195.536 151.769L203.098 175.353C206.056 184.573 204.127 194.663 197.977 202.149Z" fill="#471B36"/>
<mask id="mask0_6_176" style="mask-type:luminance" maskUnits="userSpaceOnUse" x="63" y="132" width="142" height="85">
<path d="M197.977 202.149L186.27 216.378H112.958V198.479C106.496 204.812 95.8527 203.63 90.9429 196.033L63.6715 153.856L77.6483 141.108L95.7939 163.911L105.819 146.488C110.688 138.027 119.714 132.812 129.475 132.812H137.56C137.56 132.812 138.424 135.34 141.076 139.532C146.385 147.923 158.522 148.399 164.319 140.338C165.948 138.074 167.471 135.552 168.694 132.812H169.547C181.407 132.812 191.914 140.473 195.536 151.769L203.098 175.353C206.056 184.573 204.127 194.663 197.977 202.149Z" fill="white"/>
</mask>
<g mask="url(#mask0_6_176)">
<path d="M64.2001 214.24C64.3106 214.392 64.3636 214.566 64.3636 214.74C64.3636 214.993 64.253 215.246 64.0372 215.409L61.1625 217.572C60.7938 217.846 60.2676 217.772 59.9935 217.404C59.7195 217.04 59.7936 216.514 60.157 216.24L63.0317 214.076C63.3998 213.797 63.9208 213.871 64.2001 214.24Z" fill="white"/>
<path d="M64.2001 162.501C64.3106 162.654 64.3636 162.827 64.3636 163.001C64.3636 163.259 64.253 163.507 64.0372 163.67L61.1625 165.834C60.7938 166.113 60.2676 166.034 59.9935 165.67C59.7195 165.301 59.7936 164.775 60.157 164.501L63.0317 162.337C63.3998 162.063 63.9208 162.137 64.2001 162.501Z" fill="white"/>
<path d="M64.2001 179.749C64.3106 179.902 64.3636 180.075 64.3636 180.249C64.3636 180.502 64.253 180.755 64.0372 180.918L61.1625 183.081C60.7938 183.355 60.2676 183.281 59.9935 182.913C59.7195 182.549 59.7936 182.023 60.157 181.749L63.0317 179.585C63.3998 179.306 63.9208 179.38 64.2001 179.749Z" fill="white"/>
<path d="M64.2001 145.258C64.3106 145.405 64.3636 145.579 64.3636 145.758C64.3636 146.011 64.253 146.264 64.0372 146.427L61.1625 148.591C60.7938 148.865 60.2676 148.79 59.9935 148.422C59.7195 148.059 59.7936 147.533 60.157 147.259L63.0317 145.095C63.3998 144.816 63.9208 144.889 64.2001 145.258Z" fill="white"/>
<path d="M69.8385 207.09C69.8543 207.548 69.4962 207.938 69.0382 207.959L65.4473 208.111C64.9892 208.127 64.5941 207.769 64.5788 207.311V207.274C64.5788 206.832 64.9263 206.463 65.3738 206.442L68.97 206.289C69.428 206.269 69.8179 206.632 69.8385 207.09Z" fill="white"/>
<path d="M64.2001 196.992C64.3106 197.145 64.3636 197.318 64.3636 197.492C64.3636 197.75 64.253 197.998 64.0372 198.161L61.1625 200.325C60.7938 200.604 60.2676 200.53 59.9935 200.161C59.7195 199.792 59.7936 199.271 60.157 198.992L63.0317 196.828C63.3998 196.555 63.9208 196.628 64.2001 196.992Z" fill="white"/>
<path d="M74.0668 165.023C74.3408 165.386 74.2667 165.912 73.9033 166.192C73.5346 166.466 73.0084 166.392 72.7344 166.023L70.5705 163.148C70.2965 162.785 70.3706 162.259 70.734 161.985C70.8869 161.869 71.0603 161.816 71.2397 161.816C71.4925 161.816 71.74 161.932 71.9029 162.147L74.0668 165.023Z" fill="white"/>
<path d="M85.1706 198.466C85.1917 198.924 84.8283 199.314 84.3703 199.334L80.7794 199.487C80.3213 199.508 79.9315 199.15 79.9109 198.692V198.655C79.9109 198.208 80.2584 197.839 80.7059 197.823L84.3021 197.665C84.7595 197.65 85.1494 198.008 85.1706 198.466Z" fill="white"/>
<path d="M69.8385 172.599C69.8543 173.057 69.4962 173.447 69.0382 173.468L65.4473 173.621C64.9892 173.636 64.5941 173.278 64.5788 172.82V172.783C64.5788 172.341 64.9263 171.972 65.3738 171.951L68.97 171.798C69.428 171.778 69.8179 172.141 69.8385 172.599Z" fill="white"/>
<path d="M85.1706 215.709C85.1917 216.167 84.8283 216.562 84.3703 216.577L80.7794 216.736C80.3213 216.751 79.9315 216.393 79.9109 215.935V215.898C79.9109 215.456 80.2584 215.087 80.7059 215.066L84.3021 214.913C84.7595 214.893 85.1494 215.251 85.1706 215.709Z" fill="white"/>
<path d="M89.3982 208.138C89.6775 208.501 89.5982 209.028 89.2348 209.302C88.8661 209.581 88.3398 209.507 88.0658 209.138L85.902 206.263C85.628 205.9 85.7021 205.374 86.0655 205.1C86.2183 204.984 86.3918 204.931 86.5711 204.931C86.824 204.931 87.0715 205.047 87.2344 205.263L89.3982 208.138Z" fill="white"/>
<path d="M94.8631 162.501C94.979 162.654 95.0319 162.827 95.0319 163.007C95.0319 163.259 94.9161 163.507 94.7003 163.67L91.8255 165.834C91.4621 166.113 90.9359 166.034 90.6566 165.67C90.3826 165.301 90.4567 164.775 90.8253 164.501L93.7001 162.337C94.0629 162.063 94.5897 162.137 94.8631 162.501Z" fill="white"/>
<path d="M100.502 207.09C100.523 207.548 100.165 207.938 99.7071 207.959L96.1108 208.111C95.6528 208.127 95.263 207.769 95.2424 207.311V207.274C95.2424 206.832 95.5952 206.463 96.0426 206.442L99.6336 206.289C100.092 206.269 100.481 206.632 100.502 207.09Z" fill="white"/>
<path d="M100.502 189.842C100.523 190.3 100.165 190.69 99.7071 190.71L96.1108 190.863C95.6528 190.884 95.263 190.526 95.2424 190.068V190.031C95.2424 189.589 95.5952 189.215 96.0426 189.199L99.6336 189.046C100.092 189.026 100.481 189.384 100.502 189.842Z" fill="white"/>
<path d="M69.8385 138.102C69.8543 138.566 69.4962 138.956 69.0382 138.971L65.4473 139.129C64.9892 139.145 64.5941 138.787 64.5788 138.329V138.292C64.5788 137.85 64.9263 137.481 65.3738 137.46L68.97 137.307C69.428 137.286 69.8179 137.644 69.8385 138.102Z" fill="white"/>
<path d="M94.8631 196.992C94.979 197.145 95.0319 197.318 95.0319 197.497C95.0319 197.75 94.9161 197.998 94.7003 198.161L91.8255 200.325C91.4621 200.604 90.9359 200.53 90.6566 200.161C90.3826 199.792 90.4567 199.271 90.8253 198.992L93.7001 196.828C94.0629 196.555 94.5897 196.628 94.8631 196.992Z" fill="white"/>
<path d="M79.5316 136.634C79.6422 136.786 79.6951 136.96 79.6951 137.134C79.6951 137.387 79.5846 137.64 79.3688 137.803L76.494 139.966C76.1254 140.24 75.6044 140.166 75.3251 139.803C75.0511 139.434 75.1252 138.908 75.4886 138.634L78.3633 136.47C78.7314 136.191 79.2576 136.265 79.5316 136.634Z" fill="white"/>
<path d="M94.8631 214.24C94.979 214.392 95.0319 214.566 95.0319 214.74C95.0319 214.993 94.9161 215.246 94.7003 215.409L91.8255 217.572C91.4621 217.846 90.9359 217.772 90.6566 217.404C90.3826 217.04 90.4567 216.514 90.8253 216.24L93.7001 214.076C94.0629 213.797 94.5897 213.871 94.8631 214.24Z" fill="white"/>
<path d="M100.502 172.599C100.523 173.057 100.165 173.447 99.7071 173.468L96.1108 173.621C95.6528 173.636 95.263 173.278 95.2424 172.82V172.783C95.2424 172.341 95.5952 171.972 96.0426 171.951L99.6336 171.798C100.092 171.778 100.481 172.141 100.502 172.599Z" fill="white"/>
<path d="M100.502 155.351C100.523 155.809 100.165 156.199 99.7071 156.219L96.1108 156.372C95.6528 156.393 95.263 156.035 95.2424 155.577V155.54C95.2424 155.098 95.5952 154.724 96.0426 154.708L99.6336 154.555C100.092 154.535 100.481 154.893 100.502 155.351Z" fill="white"/>
<path d="M74.0668 182.265C74.3408 182.634 74.2667 183.16 73.9033 183.434C73.5346 183.708 73.0084 183.634 72.7344 183.271L70.5705 180.396C70.2965 180.027 70.3706 179.506 70.734 179.227C70.8869 179.117 71.0603 179.064 71.2344 179.064C71.4925 179.064 71.74 179.174 71.9029 179.39L74.0668 182.265Z" fill="white"/>
<path d="M79.5316 205.616C79.6422 205.769 79.6951 205.942 79.6951 206.116C79.6951 206.374 79.5846 206.622 79.3688 206.785L76.494 208.949C76.1254 209.223 75.6044 209.149 75.3251 208.785C75.0511 208.417 75.1252 207.89 75.4886 207.616L78.3633 205.452C78.7314 205.178 79.2576 205.253 79.5316 205.616Z" fill="white"/>
<path d="M79.5316 171.124C79.6422 171.277 79.6951 171.451 79.6951 171.625C79.6951 171.883 79.5846 172.131 79.3688 172.293L76.494 174.457C76.1254 174.731 75.6044 174.657 75.3251 174.294C75.0511 173.925 75.1252 173.399 75.4886 173.125L78.3633 170.961C78.7314 170.682 79.2576 170.762 79.5316 171.124Z" fill="white"/>
<path d="M74.0668 216.757C74.3408 217.125 74.2667 217.652 73.9033 217.926C73.5346 218.205 73.0084 218.126 72.7344 217.762L70.5705 214.888C70.2965 214.519 70.3706 213.998 70.734 213.719C70.8816 213.608 71.0603 213.555 71.2344 213.555C71.4872 213.555 71.74 213.666 71.9029 213.887L74.0668 216.757Z" fill="white"/>
<path d="M74.0668 199.514C74.3408 199.877 74.2667 200.403 73.9033 200.683C73.5346 200.957 73.0084 200.883 72.7344 200.514L70.5705 197.644C70.2965 197.276 70.3706 196.75 70.734 196.476C70.8869 196.36 71.0603 196.307 71.2397 196.307C71.4925 196.307 71.74 196.423 71.9029 196.638L74.0668 199.514Z" fill="white"/>
<path d="M94.8631 145.258C94.979 145.405 95.0319 145.584 95.0319 145.758C95.0319 146.011 94.9161 146.264 94.7003 146.427L91.8255 148.591C91.4621 148.865 90.9359 148.79 90.6566 148.422C90.3826 148.059 90.4567 147.533 90.8253 147.259L93.7001 145.095C94.0629 144.816 94.5897 144.889 94.8631 145.258Z" fill="white"/>
<path d="M100.502 138.102C100.523 138.566 100.165 138.956 99.7071 138.971L96.1108 139.129C95.6528 139.145 95.263 138.787 95.2424 138.329V138.292C95.2424 137.85 95.5952 137.481 96.0426 137.46L99.6336 137.307C100.092 137.286 100.481 137.644 100.502 138.102Z" fill="white"/>
<path d="M85.1706 163.975C85.1917 164.433 84.8283 164.823 84.3703 164.843L80.7794 164.996C80.3213 165.017 79.9315 164.654 79.9109 164.196V164.159C79.9109 163.717 80.2584 163.348 80.7059 163.327L84.3021 163.174C84.7595 163.159 85.1494 163.517 85.1706 163.975Z" fill="white"/>
<path d="M89.3982 156.399C89.6775 156.767 89.5982 157.288 89.2348 157.568C88.8661 157.842 88.3398 157.767 88.0658 157.404L85.902 154.529C85.628 154.161 85.7021 153.634 86.0655 153.36C86.213 153.245 86.3918 153.192 86.5658 153.192C86.8187 153.192 87.0715 153.308 87.2344 153.524L89.3982 156.399Z" fill="white"/>
<path d="M69.8385 189.842C69.8543 190.3 69.4962 190.69 69.0382 190.71L65.4473 190.863C64.9892 190.884 64.5941 190.526 64.5788 190.068V190.031C64.5788 189.589 64.9263 189.215 65.3738 189.199L68.97 189.046C69.428 189.026 69.8179 189.384 69.8385 189.842Z" fill="white"/>
<path d="M69.8385 155.351C69.8543 155.809 69.4962 156.199 69.0382 156.219L65.4473 156.372C64.9892 156.393 64.5941 156.035 64.5788 155.577V155.54C64.5788 155.098 64.9263 154.724 65.3738 154.708L68.97 154.555C69.428 154.535 69.8179 154.893 69.8385 155.351Z" fill="white"/>
<path d="M79.5316 153.882C79.6422 154.03 79.6951 154.203 79.6951 154.382C79.6951 154.635 79.5846 154.883 79.3688 155.046L76.494 157.209C76.1254 157.489 75.6044 157.415 75.3251 157.046C75.0511 156.677 75.1252 156.156 75.4886 155.877L78.3633 153.713C78.7314 153.44 79.2576 153.513 79.5316 153.882Z" fill="white"/>
<path d="M85.1706 146.727C85.1917 147.185 84.8283 147.58 84.3703 147.595L80.7794 147.748C80.3213 147.769 79.9315 147.411 79.9109 146.953V146.916C79.9109 146.474 80.2584 146.105 80.7059 146.084L84.3021 145.931C84.7595 145.91 85.1494 146.269 85.1706 146.727Z" fill="white"/>
<path d="M89.3982 190.889C89.6775 191.258 89.5982 191.779 89.2348 192.058C88.8661 192.332 88.3398 192.258 88.0658 191.895L85.902 189.02C85.628 188.652 85.7021 188.125 86.0655 187.851C86.2183 187.741 86.3918 187.688 86.5658 187.688C86.824 187.688 87.0715 187.798 87.2344 188.014L89.3982 190.889Z" fill="white"/>
<path d="M89.3982 139.15C89.6775 139.519 89.5982 140.045 89.2348 140.319C88.8661 140.598 88.3398 140.524 88.0658 140.156L85.902 137.281C85.628 136.918 85.7021 136.391 86.0655 136.112C86.213 136.001 86.3918 135.949 86.5658 135.949C86.8187 135.949 87.0715 136.059 87.2344 136.28L89.3982 139.15Z" fill="white"/>
<path d="M74.0668 147.774C74.3408 148.143 74.2667 148.669 73.9033 148.943C73.5346 149.217 73.0084 149.143 72.7344 148.78L70.5705 145.905C70.2965 145.536 70.3706 145.015 70.734 144.736C70.8869 144.626 71.0603 144.573 71.2344 144.573C71.4925 144.573 71.74 144.683 71.9029 144.899L74.0668 147.774Z" fill="white"/>
<path d="M89.3982 173.646C89.6775 174.01 89.5982 174.536 89.2348 174.81C88.8661 175.089 88.3398 175.015 88.0658 174.647L85.902 171.772C85.628 171.408 85.7021 170.882 86.0655 170.603C86.213 170.492 86.3918 170.439 86.5658 170.439C86.8187 170.439 87.0715 170.55 87.2344 170.771L89.3982 173.646Z" fill="white"/>
<path d="M85.1706 181.217C85.1917 181.676 84.8283 182.071 84.3703 182.086L80.7794 182.239C80.3213 182.26 79.9315 181.902 79.9109 181.444V181.407C79.9109 180.965 80.2584 180.596 80.7059 180.575L84.3021 180.422C84.7595 180.401 85.1494 180.759 85.1706 181.217Z" fill="white"/>
<path d="M79.5316 188.373C79.6422 188.52 79.6951 188.694 79.6951 188.873C79.6951 189.126 79.5846 189.374 79.3688 189.536L76.494 191.7C76.1254 191.98 75.6044 191.906 75.3251 191.537C75.0511 191.173 75.1252 190.647 75.4886 190.368L78.3633 188.204C78.7314 187.931 79.2576 188.004 79.5316 188.373Z" fill="white"/>
<path d="M94.8631 179.749C94.979 179.902 95.0319 180.075 95.0319 180.249C95.0319 180.502 94.9161 180.755 94.7003 180.918L91.8255 183.081C91.4621 183.355 90.9359 183.281 90.6566 182.913C90.3826 182.549 90.4567 182.023 90.8253 181.749L93.7001 179.585C94.0629 179.306 94.5897 179.38 94.8631 179.749Z" fill="white"/>
<path d="M125.532 145.258C125.643 145.405 125.695 145.579 125.695 145.758C125.695 146.011 125.585 146.264 125.369 146.427L122.494 148.591C122.126 148.865 121.599 148.79 121.325 148.422C121.046 148.059 121.126 147.533 121.489 147.259L124.364 145.095C124.732 144.816 125.253 144.889 125.532 145.258Z" fill="white"/>
<path d="M125.532 162.501C125.643 162.654 125.695 162.827 125.695 163.001C125.695 163.259 125.585 163.507 125.369 163.67L122.494 165.834C122.126 166.113 121.599 166.034 121.325 165.67C121.046 165.301 121.126 164.775 121.489 164.501L124.364 162.337C124.732 162.063 125.253 162.137 125.532 162.501Z" fill="white"/>
<path d="M125.532 196.992C125.643 197.145 125.695 197.318 125.695 197.492C125.695 197.75 125.585 197.998 125.369 198.161L122.494 200.325C122.126 200.604 121.599 200.53 121.325 200.161C121.046 199.792 121.126 199.271 121.489 198.992L124.364 196.828C124.732 196.555 125.253 196.628 125.532 196.992Z" fill="white"/>
<path d="M120.067 139.15C120.341 139.519 120.266 140.045 119.898 140.319C119.534 140.598 119.008 140.524 118.734 140.156L116.57 137.281C116.291 136.918 116.365 136.391 116.734 136.112C116.881 136.001 117.055 135.949 117.229 135.949C117.487 135.949 117.74 136.059 117.903 136.28L120.067 139.15Z" fill="white"/>
<path d="M131.171 189.842C131.187 190.3 130.829 190.69 130.371 190.71L126.78 190.863C126.322 190.884 125.927 190.526 125.911 190.068V190.031C125.911 189.589 126.259 189.215 126.706 189.199L130.302 189.046C130.76 189.026 131.15 189.384 131.171 189.842Z" fill="white"/>
<path d="M104.73 199.514C105.009 199.877 104.935 200.403 104.566 200.683C104.203 200.957 103.677 200.883 103.397 200.514L101.234 197.644C100.96 197.276 101.034 196.75 101.402 196.476C101.549 196.36 101.728 196.307 101.902 196.307C102.155 196.307 102.402 196.423 102.565 196.638L104.73 199.514Z" fill="white"/>
<path d="M131.171 172.599C131.187 173.057 130.829 173.447 130.371 173.468L126.78 173.621C126.322 173.636 125.927 173.278 125.911 172.82V172.783C125.911 172.341 126.259 171.972 126.706 171.951L130.302 171.798C130.76 171.778 131.15 172.141 131.171 172.599Z" fill="white"/>
<path d="M110.2 136.634C110.31 136.781 110.363 136.96 110.363 137.134C110.363 137.387 110.253 137.64 110.032 137.803L107.157 139.966C106.794 140.24 106.267 140.166 105.993 139.803C105.714 139.434 105.788 138.908 106.157 138.634L109.032 136.47C109.395 136.191 109.921 136.265 110.2 136.634Z" fill="white"/>
<path d="M131.171 155.351C131.187 155.809 130.829 156.199 130.371 156.219L126.78 156.372C126.322 156.393 125.927 156.035 125.911 155.577V155.54C125.911 155.098 126.259 154.724 126.706 154.708L130.302 154.555C130.76 154.535 131.15 154.893 131.171 155.351Z" fill="white"/>
<path d="M131.171 138.102C131.187 138.566 130.829 138.956 130.371 138.971L126.78 139.129C126.322 139.145 125.927 138.787 125.911 138.329V138.292C125.911 137.85 126.259 137.481 126.706 137.46L130.302 137.307C130.76 137.286 131.15 137.644 131.171 138.102Z" fill="white"/>
<path d="M135.399 165.023C135.673 165.386 135.599 165.912 135.235 166.192C134.867 166.466 134.34 166.392 134.066 166.023L131.902 163.148C131.623 162.785 131.703 162.259 132.066 161.985C132.219 161.869 132.392 161.816 132.572 161.816C132.824 161.816 133.072 161.932 133.235 162.147L135.399 165.023Z" fill="white"/>
<path d="M120.067 190.889C120.341 191.258 120.266 191.779 119.898 192.058C119.534 192.332 119.008 192.258 118.734 191.895L116.57 189.02C116.291 188.652 116.365 188.125 116.734 187.851C116.881 187.741 117.055 187.688 117.234 187.688C117.487 187.688 117.74 187.798 117.903 188.014L120.067 190.889Z" fill="white"/>
<path d="M110.2 171.124C110.31 171.272 110.363 171.451 110.363 171.625C110.363 171.878 110.253 172.131 110.032 172.293L107.157 174.457C106.794 174.731 106.267 174.657 105.993 174.294C105.714 173.925 105.788 173.399 106.157 173.125L109.032 170.961C109.395 170.682 109.921 170.762 110.2 171.124Z" fill="white"/>
<path d="M104.73 182.265C105.009 182.634 104.935 183.16 104.566 183.434C104.203 183.708 103.677 183.634 103.397 183.271L101.234 180.396C100.96 180.027 101.034 179.506 101.402 179.227C101.549 179.117 101.723 179.064 101.902 179.064C102.155 179.064 102.402 179.174 102.565 179.39L104.73 182.265Z" fill="white"/>
<path d="M115.834 146.727C115.855 147.185 115.497 147.58 115.039 147.595L111.442 147.748C110.984 147.769 110.594 147.411 110.574 146.953V146.921C110.574 146.479 110.927 146.105 111.374 146.084L114.965 145.931C115.423 145.91 115.818 146.269 115.834 146.727Z" fill="white"/>
<path d="M131.171 207.09C131.187 207.548 130.829 207.938 130.371 207.959L126.78 208.111C126.322 208.127 125.927 207.769 125.911 207.311V207.274C125.911 206.832 126.259 206.463 126.706 206.442L130.302 206.289C130.76 206.269 131.15 206.632 131.171 207.09Z" fill="white"/>
<path d="M110.2 188.373C110.31 188.52 110.363 188.694 110.363 188.868C110.363 189.121 110.253 189.374 110.032 189.536L107.157 191.7C106.794 191.98 106.267 191.906 105.993 191.537C105.714 191.173 105.788 190.647 106.157 190.368L109.032 188.204C109.395 187.931 109.921 188.004 110.2 188.373Z" fill="white"/>
<path d="M135.399 199.514C135.673 199.877 135.599 200.403 135.235 200.683C134.867 200.957 134.34 200.883 134.066 200.514L131.902 197.644C131.623 197.276 131.703 196.75 132.066 196.476C132.219 196.36 132.392 196.307 132.572 196.307C132.824 196.307 133.072 196.423 133.235 196.638L135.399 199.514Z" fill="white"/>
<path d="M110.2 153.882C110.31 154.03 110.363 154.203 110.363 154.377C110.363 154.63 110.253 154.883 110.032 155.046L107.157 157.209C106.794 157.489 106.267 157.415 105.993 157.046C105.714 156.677 105.788 156.156 106.157 155.877L109.032 153.713C109.395 153.44 109.921 153.513 110.2 153.882Z" fill="white"/>
<path d="M104.73 165.023C105.009 165.386 104.935 165.912 104.566 166.192C104.203 166.466 103.677 166.392 103.397 166.023L101.234 163.148C100.96 162.785 101.034 162.259 101.402 161.985C101.549 161.869 101.728 161.816 101.902 161.816C102.155 161.816 102.402 161.932 102.565 162.147L104.73 165.023Z" fill="white"/>
<path d="M104.73 147.774C105.009 148.143 104.935 148.669 104.566 148.943C104.203 149.217 103.677 149.143 103.397 148.78L101.234 145.905C100.96 145.536 101.034 145.015 101.402 144.736C101.549 144.626 101.723 144.573 101.902 144.573C102.155 144.573 102.402 144.683 102.565 144.899L104.73 147.774Z" fill="white"/>
<path d="M120.067 208.138C120.341 208.501 120.266 209.028 119.898 209.302C119.534 209.581 119.008 209.507 118.734 209.138L116.57 206.263C116.291 205.9 116.365 205.374 116.734 205.1C116.881 204.984 117.06 204.931 117.234 204.931C117.487 204.931 117.74 205.047 117.903 205.263L120.067 208.138Z" fill="white"/>
<path d="M115.834 163.975C115.855 164.433 115.497 164.823 115.039 164.843L111.442 164.996C110.984 165.017 110.594 164.654 110.574 164.196V164.164C110.574 163.722 110.927 163.348 111.374 163.327L114.965 163.174C115.423 163.159 115.818 163.517 115.834 163.975Z" fill="white"/>
<path d="M115.834 215.709C115.855 216.167 115.497 216.562 115.039 216.577L111.442 216.736C110.984 216.751 110.594 216.393 110.574 215.935V215.904C110.574 215.461 110.927 215.087 111.374 215.066L114.965 214.913C115.423 214.893 115.818 215.251 115.834 215.709Z" fill="white"/>
<path d="M120.067 156.399C120.341 156.767 120.266 157.288 119.898 157.568C119.534 157.842 119.008 157.767 118.734 157.404L116.57 154.529C116.291 154.161 116.365 153.634 116.734 153.36C116.881 153.245 117.055 153.192 117.229 153.192C117.487 153.192 117.74 153.308 117.903 153.524L120.067 156.399Z" fill="white"/>
<path d="M110.2 205.616C110.31 205.764 110.363 205.942 110.363 206.116C110.363 206.369 110.253 206.622 110.032 206.785L107.157 208.949C106.794 209.223 106.267 209.149 105.993 208.785C105.714 208.417 105.788 207.89 106.157 207.616L109.032 205.452C109.395 205.178 109.921 205.253 110.2 205.616Z" fill="white"/>
<path d="M120.067 173.646C120.341 174.01 120.266 174.536 119.898 174.81C119.534 175.089 119.008 175.015 118.734 174.647L116.57 171.772C116.291 171.408 116.365 170.882 116.734 170.603C116.881 170.492 117.055 170.439 117.229 170.439C117.487 170.439 117.74 170.55 117.903 170.771L120.067 173.646Z" fill="white"/>
<path d="M125.532 214.24C125.643 214.392 125.695 214.566 125.695 214.74C125.695 214.993 125.585 215.246 125.369 215.409L122.494 217.572C122.126 217.846 121.599 217.772 121.325 217.404C121.046 217.04 121.126 216.514 121.489 216.24L124.364 214.076C124.732 213.797 125.253 213.871 125.532 214.24Z" fill="white"/>
<path d="M104.73 216.757C105.009 217.125 104.935 217.652 104.566 217.926C104.203 218.205 103.677 218.126 103.397 217.762L101.234 214.888C100.96 214.519 101.034 213.998 101.402 213.719C101.549 213.608 101.723 213.555 101.897 213.555C102.15 213.555 102.402 213.666 102.565 213.887L104.73 216.757Z" fill="white"/>
<path d="M125.532 179.749C125.643 179.902 125.695 180.075 125.695 180.249C125.695 180.502 125.585 180.755 125.369 180.918L122.494 183.081C122.126 183.355 121.599 183.281 121.325 182.913C121.046 182.549 121.126 182.023 121.489 181.749L124.364 179.585C124.732 179.306 125.253 179.38 125.532 179.749Z" fill="white"/>
<path d="M115.834 198.466C115.855 198.924 115.497 199.314 115.039 199.334L111.442 199.487C110.984 199.508 110.594 199.15 110.574 198.692V198.661C110.574 198.213 110.927 197.839 111.374 197.823L114.965 197.665C115.423 197.65 115.818 198.008 115.834 198.466Z" fill="white"/>
<path d="M115.834 181.217C115.855 181.676 115.497 182.071 115.039 182.086L111.442 182.239C110.984 182.26 110.594 181.902 110.574 181.444V181.412C110.574 180.97 110.927 180.596 111.374 180.575L114.965 180.422C115.423 180.401 115.818 180.759 115.834 181.217Z" fill="white"/>
<path d="M140.864 136.634C140.974 136.786 141.027 136.96 141.027 137.134C141.027 137.387 140.916 137.64 140.701 137.803L137.826 139.966C137.457 140.24 136.936 140.166 136.657 139.803C136.383 139.434 136.457 138.908 136.82 138.634L139.695 136.47C140.063 136.191 140.59 136.265 140.864 136.634Z" fill="white"/>
<path d="M156.195 162.501C156.311 162.654 156.364 162.827 156.364 163.007C156.364 163.259 156.248 163.507 156.032 163.67L153.157 165.834C152.794 166.113 152.268 166.034 151.988 165.67C151.714 165.301 151.789 164.775 152.157 164.501L155.027 162.337C155.395 162.063 155.922 162.137 156.195 162.501Z" fill="white"/>
<path d="M161.834 172.599C161.855 173.057 161.497 173.447 161.039 173.468L157.443 173.621C156.985 173.636 156.595 173.278 156.574 172.82V172.783C156.574 172.341 156.922 171.972 157.375 171.951L160.965 171.798C161.424 171.778 161.813 172.141 161.834 172.599Z" fill="white"/>
<path d="M140.864 171.124C140.974 171.277 141.027 171.451 141.027 171.625C141.027 171.883 140.916 172.131 140.701 172.293L137.826 174.457C137.457 174.731 136.936 174.657 136.657 174.294C136.383 173.925 136.457 173.399 136.82 173.125L139.695 170.961C140.063 170.682 140.59 170.762 140.864 171.124Z" fill="white"/>
<path d="M140.864 188.373C140.974 188.52 141.027 188.694 141.027 188.873C141.027 189.126 140.916 189.374 140.701 189.536L137.826 191.7C137.457 191.98 136.936 191.906 136.657 191.537C136.383 191.173 136.457 190.647 136.82 190.368L139.695 188.204C140.063 187.931 140.59 188.004 140.864 188.373Z" fill="white"/>
<path d="M161.834 155.351C161.855 155.809 161.497 156.199 161.039 156.219L157.443 156.372C156.985 156.393 156.595 156.035 156.574 155.577V155.54C156.574 155.098 156.922 154.724 157.375 154.708L160.965 154.555C161.424 154.535 161.813 154.893 161.834 155.351Z" fill="white"/>
<path d="M146.502 198.466C146.524 198.924 146.16 199.314 145.702 199.334L142.111 199.487C141.653 199.508 141.263 199.15 141.243 198.692V198.655C141.243 198.208 141.59 197.839 142.038 197.823L145.634 197.665C146.092 197.65 146.481 198.008 146.502 198.466Z" fill="white"/>
<path d="M140.864 205.616C140.974 205.769 141.027 205.942 141.027 206.116C141.027 206.374 140.916 206.622 140.701 206.785L137.826 208.949C137.457 209.223 136.936 209.149 136.657 208.785C136.383 208.417 136.457 207.89 136.82 207.616L139.695 205.452C140.063 205.178 140.59 205.253 140.864 205.616Z" fill="white"/>
<path d="M150.73 173.646C151.004 174.01 150.93 174.536 150.567 174.81C150.198 175.089 149.672 175.015 149.398 174.647L147.234 171.772C146.96 171.408 147.034 170.882 147.397 170.603C147.545 170.492 147.724 170.439 147.898 170.439C148.151 170.439 148.403 170.55 148.566 170.771L150.73 173.646Z" fill="white"/>
<path d="M161.834 138.102C161.855 138.566 161.497 138.956 161.039 138.971L157.443 139.129C156.985 139.145 156.595 138.787 156.574 138.329V138.292C156.574 137.85 156.922 137.481 157.375 137.46L160.965 137.307C161.424 137.286 161.813 137.644 161.834 138.102Z" fill="white"/>
<path d="M166.062 165.023C166.341 165.386 166.267 165.912 165.898 166.192C165.53 166.466 165.009 166.392 164.729 166.023L162.565 163.148C162.291 162.785 162.366 162.259 162.734 161.985C162.882 161.869 163.061 161.816 163.235 161.816C163.487 161.816 163.735 161.932 163.898 162.147L166.062 165.023Z" fill="white"/>
<path d="M135.399 182.265C135.673 182.634 135.599 183.16 135.235 183.434C134.867 183.708 134.34 183.634 134.066 183.271L131.902 180.396C131.623 180.027 131.703 179.506 132.066 179.227C132.219 179.117 132.392 179.064 132.566 179.064C132.824 179.064 133.072 179.174 133.235 179.39L135.399 182.265Z" fill="white"/>
<path d="M146.502 163.975C146.524 164.433 146.16 164.823 145.702 164.843L142.111 164.996C141.653 165.017 141.263 164.654 141.243 164.196V164.159C141.243 163.717 141.59 163.348 142.038 163.327L145.634 163.174C146.092 163.159 146.481 163.517 146.502 163.975Z" fill="white"/>
<path d="M156.195 179.749C156.311 179.902 156.364 180.075 156.364 180.249C156.364 180.502 156.248 180.755 156.032 180.918L153.157 183.081C152.794 183.355 152.268 183.281 151.988 182.913C151.714 182.549 151.789 182.023 152.157 181.749L155.027 179.585C155.395 179.306 155.922 179.38 156.195 179.749Z" fill="white"/>
<path d="M140.864 153.882C140.974 154.03 141.027 154.203 141.027 154.382C141.027 154.635 140.916 154.883 140.701 155.046L137.826 157.209C137.457 157.489 136.936 157.415 136.657 157.046C136.383 156.677 136.457 156.156 136.82 155.877L139.695 153.713C140.063 153.44 140.59 153.513 140.864 153.882Z" fill="white"/>
<path d="M146.502 215.709C146.524 216.167 146.16 216.562 145.702 216.577L142.111 216.736C141.653 216.751 141.263 216.393 141.243 215.935V215.898C141.243 215.456 141.59 215.087 142.038 215.066L145.634 214.913C146.092 214.893 146.481 215.251 146.502 215.709Z" fill="white"/>
<path d="M166.062 199.514C166.341 199.877 166.267 200.403 165.898 200.683C165.53 200.957 165.009 200.883 164.729 200.514L162.565 197.644C162.291 197.276 162.366 196.75 162.734 196.476C162.882 196.36 163.061 196.307 163.235 196.307C163.487 196.307 163.735 196.423 163.898 196.638L166.062 199.514Z" fill="white"/>
<path d="M150.73 190.889C151.004 191.258 150.93 191.779 150.567 192.058C150.198 192.332 149.672 192.258 149.398 191.895L147.234 189.02C146.96 188.652 147.034 188.125 147.397 187.851C147.55 187.741 147.724 187.688 147.898 187.688C148.156 187.688 148.403 187.798 148.566 188.014L150.73 190.889Z" fill="white"/>
<path d="M156.195 145.258C156.311 145.405 156.364 145.584 156.364 145.758C156.364 146.011 156.248 146.264 156.032 146.427L153.157 148.591C152.794 148.865 152.268 148.79 151.988 148.422C151.714 148.059 151.789 147.533 152.157 147.259L155.027 145.095C155.395 144.816 155.922 144.889 156.195 145.258Z" fill="white"/>
<path d="M166.062 216.757C166.341 217.125 166.267 217.652 165.898 217.926C165.53 218.205 165.009 218.126 164.729 217.762L162.565 214.888C162.291 214.519 162.366 213.998 162.734 213.719C162.882 213.608 163.055 213.555 163.229 213.555C163.482 213.555 163.735 213.666 163.898 213.887L166.062 216.757Z" fill="white"/>
<path d="M166.062 182.265C166.341 182.634 166.267 183.16 165.898 183.434C165.53 183.708 165.009 183.634 164.729 183.271L162.565 180.396C162.291 180.027 162.366 179.506 162.734 179.227C162.882 179.117 163.055 179.064 163.235 179.064C163.487 179.064 163.735 179.174 163.898 179.39L166.062 182.265Z" fill="white"/>
<path d="M156.195 214.24C156.311 214.392 156.364 214.566 156.364 214.74C156.364 214.993 156.248 215.246 156.032 215.409L153.157 217.572C152.794 217.846 152.268 217.772 151.988 217.404C151.714 217.04 151.789 216.514 152.157 216.24L155.027 214.076C155.395 213.797 155.922 213.871 156.195 214.24Z" fill="white"/>
<path d="M161.834 207.09C161.855 207.548 161.497 207.938 161.039 207.959L157.443 208.111C156.985 208.127 156.595 207.769 156.574 207.311V207.274C156.574 206.832 156.922 206.463 157.375 206.442L160.965 206.289C161.424 206.269 161.813 206.632 161.834 207.09Z" fill="white"/>
<path d="M166.062 147.774C166.341 148.143 166.267 148.669 165.898 148.943C165.53 149.217 165.009 149.143 164.729 148.78L162.565 145.905C162.291 145.536 162.366 145.015 162.734 144.736C162.882 144.626 163.055 144.573 163.235 144.573C163.487 144.573 163.735 144.683 163.898 144.899L166.062 147.774Z" fill="white"/>
<path d="M135.399 216.757C135.673 217.125 135.599 217.652 135.235 217.926C134.867 218.205 134.34 218.126 134.066 217.762L131.902 214.888C131.623 214.519 131.703 213.998 132.066 213.719C132.213 213.608 132.392 213.555 132.566 213.555C132.819 213.555 133.072 213.666 133.235 213.887L135.399 216.757Z" fill="white"/>
<path d="M135.399 147.774C135.673 148.143 135.599 148.669 135.235 148.943C134.867 149.217 134.34 149.143 134.066 148.78L131.902 145.905C131.623 145.536 131.703 145.015 132.066 144.736C132.219 144.626 132.392 144.573 132.566 144.573C132.824 144.573 133.072 144.683 133.235 144.899L135.399 147.774Z" fill="white"/>
<path d="M150.73 139.15C151.004 139.519 150.93 140.045 150.567 140.319C150.198 140.598 149.672 140.524 149.398 140.156L147.234 137.281C146.96 136.918 147.034 136.391 147.397 136.112C147.545 136.001 147.724 135.949 147.898 135.949C148.151 135.949 148.403 136.059 148.566 136.28L150.73 139.15Z" fill="white"/>
<path d="M146.502 146.727C146.524 147.185 146.16 147.58 145.702 147.595L142.111 147.748C141.653 147.769 141.263 147.411 141.243 146.953V146.916C141.243 146.474 141.59 146.105 142.038 146.084L145.634 145.931C146.092 145.91 146.481 146.269 146.502 146.727Z" fill="white"/>
<path d="M156.195 196.992C156.311 197.145 156.364 197.318 156.364 197.497C156.364 197.75 156.248 197.998 156.032 198.161L153.157 200.325C152.794 200.604 152.268 200.53 151.988 200.161C151.714 199.792 151.789 199.271 152.157 198.992L155.027 196.828C155.395 196.555 155.922 196.628 156.195 196.992Z" fill="white"/>
<path d="M150.73 208.138C151.004 208.501 150.93 209.028 150.567 209.302C150.198 209.581 149.672 209.507 149.398 209.138L147.234 206.263C146.96 205.9 147.034 205.374 147.397 205.1C147.55 204.984 147.724 204.931 147.903 204.931C148.156 204.931 148.403 205.047 148.566 205.263L150.73 208.138Z" fill="white"/>
<path d="M161.834 189.842C161.855 190.3 161.497 190.69 161.039 190.71L157.443 190.863C156.985 190.884 156.595 190.526 156.574 190.068V190.031C156.574 189.589 156.922 189.215 157.375 189.199L160.965 189.046C161.424 189.026 161.813 189.384 161.834 189.842Z" fill="white"/>
<path d="M146.502 181.217C146.524 181.676 146.16 182.071 145.702 182.086L142.111 182.239C141.653 182.26 141.263 181.902 141.243 181.444V181.407C141.243 180.965 141.59 180.596 142.038 180.575L145.634 180.422C146.092 180.401 146.481 180.759 146.502 181.217Z" fill="white"/>
<path d="M150.73 156.399C151.004 156.767 150.93 157.288 150.567 157.568C150.198 157.842 149.672 157.767 149.398 157.404L147.234 154.529C146.96 154.161 147.034 153.634 147.397 153.36C147.545 153.245 147.724 153.192 147.898 153.192C148.151 153.192 148.403 153.308 148.566 153.524L150.73 156.399Z" fill="white"/>
<path d="M177.166 181.217C177.187 181.676 176.829 182.071 176.371 182.086L172.775 182.239C172.317 182.26 171.927 181.902 171.906 181.444V181.412C171.906 180.97 172.259 180.596 172.707 180.575L176.298 180.422C176.755 180.401 177.15 180.759 177.166 181.217Z" fill="white"/>
<path d="M171.527 188.373C171.643 188.52 171.696 188.699 171.696 188.873C171.696 189.126 171.58 189.374 171.364 189.536L168.49 191.7C168.126 191.98 167.6 191.906 167.326 191.537C167.047 191.173 167.121 190.647 167.489 190.368L170.364 188.204C170.727 187.931 171.253 188.004 171.527 188.373Z" fill="white"/>
<path d="M181.399 208.138C181.673 208.501 181.599 209.028 181.231 209.302C180.868 209.581 180.341 209.507 180.062 209.138L177.903 206.263C177.624 205.9 177.698 205.374 178.067 205.1C178.214 204.984 178.393 204.931 178.567 204.931C178.82 204.931 179.073 205.047 179.236 205.263L181.399 208.138Z" fill="white"/>
<path d="M177.166 198.466C177.187 198.924 176.829 199.314 176.371 199.334L172.775 199.487C172.317 199.508 171.927 199.15 171.906 198.692V198.661C171.906 198.213 172.259 197.839 172.707 197.823L176.298 197.665C176.755 197.65 177.15 198.008 177.166 198.466Z" fill="white"/>
<path d="M186.864 162.501C186.975 162.648 187.027 162.827 187.027 163.001C187.027 163.254 186.917 163.507 186.696 163.67L183.826 165.834C183.458 166.113 182.931 166.034 182.657 165.67C182.378 165.301 182.452 164.775 182.821 164.501L185.696 162.337C186.064 162.063 186.585 162.137 186.864 162.501Z" fill="white"/>
<path d="M171.527 205.616C171.643 205.769 171.696 205.942 171.696 206.122C171.696 206.374 171.58 206.622 171.364 206.785L168.49 208.949C168.126 209.223 167.6 209.149 167.326 208.785C167.047 208.417 167.121 207.89 167.489 207.616L170.364 205.452C170.727 205.178 171.253 205.253 171.527 205.616Z" fill="white"/>
<path d="M181.399 139.15C181.673 139.519 181.599 140.045 181.231 140.319C180.868 140.598 180.341 140.524 180.062 140.156L177.903 137.281C177.624 136.918 177.698 136.391 178.067 136.112C178.214 136.001 178.388 135.949 178.562 135.949C178.82 135.949 179.073 136.059 179.236 136.28L181.399 139.15Z" fill="white"/>
<path d="M186.864 145.258C186.975 145.405 187.027 145.579 187.027 145.753C187.027 146.011 186.917 146.264 186.696 146.427L183.826 148.591C183.458 148.865 182.931 148.79 182.657 148.422C182.378 148.059 182.452 147.533 182.821 147.259L185.696 145.095C186.064 144.816 186.585 144.889 186.864 145.258Z" fill="white"/>
<path d="M171.527 171.124C171.643 171.277 171.696 171.451 171.696 171.63C171.696 171.883 171.58 172.131 171.364 172.293L168.49 174.457C168.126 174.731 167.6 174.657 167.326 174.294C167.047 173.925 167.121 173.399 167.489 173.125L170.364 170.961C170.727 170.682 171.253 170.762 171.527 171.124Z" fill="white"/>
<path d="M181.399 156.399C181.673 156.767 181.599 157.288 181.231 157.568C180.868 157.842 180.341 157.767 180.062 157.404L177.903 154.529C177.624 154.161 177.698 153.634 178.067 153.36C178.214 153.245 178.388 153.192 178.562 153.192C178.82 153.192 179.073 153.308 179.236 153.524L181.399 156.399Z" fill="white"/>
<path d="M177.166 163.975C177.187 164.433 176.829 164.823 176.371 164.843L172.775 164.996C172.317 165.017 171.927 164.654 171.906 164.196V164.164C171.906 163.722 172.259 163.348 172.707 163.327L176.298 163.174C176.755 163.159 177.15 163.517 177.166 163.975Z" fill="white"/>
<path d="M177.166 146.727C177.187 147.185 176.829 147.58 176.371 147.595L172.775 147.748C172.317 147.769 171.927 147.411 171.906 146.953V146.921C171.906 146.479 172.259 146.105 172.707 146.084L176.298 145.931C176.755 145.91 177.15 146.269 177.166 146.727Z" fill="white"/>
<path d="M181.399 190.889C181.673 191.258 181.599 191.779 181.231 192.058C180.868 192.332 180.341 192.258 180.062 191.895L177.903 189.02C177.624 188.652 177.698 188.125 178.067 187.851C178.214 187.741 178.388 187.688 178.567 187.688C178.82 187.688 179.073 187.798 179.236 188.014L181.399 190.889Z" fill="white"/>
<path d="M186.864 214.24C186.975 214.387 187.027 214.566 187.027 214.74C187.027 214.993 186.917 215.246 186.696 215.409L183.826 217.572C183.458 217.846 182.931 217.772 182.657 217.404C182.378 217.04 182.452 216.514 182.821 216.24L185.696 214.076C186.064 213.797 186.585 213.871 186.864 214.24Z" fill="white"/>
<path d="M192.503 189.842C192.519 190.3 192.161 190.69 191.703 190.71L188.106 190.863C187.648 190.884 187.258 190.526 187.238 190.068V190.036C187.238 189.594 187.591 189.215 188.038 189.199L191.634 189.046C192.092 189.026 192.482 189.384 192.503 189.842Z" fill="white"/>
<path d="M192.503 172.599C192.519 173.057 192.161 173.447 191.703 173.468L188.106 173.621C187.648 173.636 187.258 173.278 187.238 172.82V172.789C187.238 172.346 187.591 171.972 188.038 171.951L191.634 171.798C192.092 171.778 192.482 172.141 192.503 172.599Z" fill="white"/>
<path d="M192.503 155.351C192.519 155.809 192.161 156.199 191.703 156.219L188.106 156.372C187.648 156.393 187.258 156.035 187.238 155.577V155.545C187.238 155.103 187.591 154.724 188.038 154.708L191.634 154.555C192.092 154.535 192.482 154.893 192.503 155.351Z" fill="white"/>
<path d="M177.166 215.709C177.187 216.167 176.829 216.562 176.371 216.577L172.775 216.736C172.317 216.751 171.927 216.393 171.906 215.935V215.904C171.906 215.461 172.259 215.087 172.707 215.066L176.298 214.913C176.755 214.893 177.15 215.251 177.166 215.709Z" fill="white"/>
<path d="M196.731 199.514C197.005 199.877 196.93 200.403 196.567 200.683C196.198 200.957 195.672 200.883 195.398 200.514L193.234 197.644C192.955 197.276 193.029 196.75 193.398 196.476C193.551 196.36 193.724 196.307 193.898 196.307C194.151 196.307 194.404 196.423 194.567 196.638L196.731 199.514Z" fill="white"/>
<path d="M196.731 165.023C197.005 165.386 196.93 165.912 196.567 166.192C196.198 166.466 195.672 166.392 195.398 166.023L193.234 163.148C192.955 162.785 193.029 162.259 193.398 161.985C193.551 161.869 193.724 161.816 193.898 161.816C194.151 161.816 194.404 161.932 194.567 162.147L196.731 165.023Z" fill="white"/>
<path d="M192.503 138.102C192.519 138.566 192.161 138.956 191.703 138.971L188.106 139.129C187.648 139.145 187.258 138.787 187.238 138.329V138.298C187.238 137.855 187.591 137.481 188.038 137.46L191.634 137.307C192.092 137.286 192.482 137.644 192.503 138.102Z" fill="white"/>
<path d="M186.864 196.992C186.975 197.139 187.027 197.318 187.027 197.492C187.027 197.745 186.917 197.998 186.696 198.161L183.826 200.325C183.458 200.604 182.931 200.53 182.657 200.161C182.378 199.792 182.452 199.271 182.821 198.992L185.696 196.828C186.064 196.555 186.585 196.628 186.864 196.992Z" fill="white"/>
<path d="M171.527 136.634C171.643 136.786 171.696 136.96 171.696 137.134C171.696 137.387 171.58 137.64 171.364 137.803L168.49 139.966C168.126 140.24 167.6 140.166 167.326 139.803C167.047 139.434 167.121 138.908 167.489 138.634L170.364 136.47C170.727 136.191 171.253 136.265 171.527 136.634Z" fill="white"/>
<path d="M181.399 173.646C181.673 174.01 181.599 174.536 181.231 174.81C180.868 175.089 180.341 175.015 180.062 174.647L177.903 171.772C177.624 171.408 177.698 170.882 178.067 170.603C178.214 170.492 178.388 170.439 178.562 170.439C178.82 170.439 179.073 170.55 179.236 170.771L181.399 173.646Z" fill="white"/>
<path d="M186.864 179.749C186.975 179.896 187.027 180.075 187.027 180.249C187.027 180.502 186.917 180.755 186.696 180.918L183.826 183.081C183.458 183.355 182.931 183.281 182.657 182.913C182.378 182.549 182.452 182.023 182.821 181.749L185.696 179.585C186.064 179.306 186.585 179.38 186.864 179.749Z" fill="white"/>
<path d="M192.503 207.09C192.519 207.548 192.161 207.938 191.703 207.959L188.106 208.111C187.648 208.127 187.258 207.769 187.238 207.311V207.279C187.238 206.837 187.591 206.463 188.038 206.442L191.634 206.289C192.092 206.269 192.482 206.632 192.503 207.09Z" fill="white"/>
<path d="M171.527 153.882C171.643 154.03 171.696 154.208 171.696 154.382C171.696 154.635 171.58 154.883 171.364 155.046L168.49 157.209C168.126 157.489 167.6 157.415 167.326 157.046C167.047 156.677 167.121 156.156 167.489 155.877L170.364 153.713C170.727 153.44 171.253 153.513 171.527 153.882Z" fill="white"/>
<path d="M196.731 216.757C197.005 217.125 196.93 217.652 196.567 217.926C196.198 218.205 195.672 218.126 195.398 217.762L193.234 214.888C192.955 214.519 193.029 213.998 193.398 213.719C193.545 213.608 193.724 213.555 193.898 213.555C194.151 213.555 194.404 213.666 194.567 213.887L196.731 216.757Z" fill="white"/>
<path d="M196.731 182.265C197.005 182.634 196.93 183.16 196.567 183.434C196.198 183.708 195.672 183.634 195.398 183.271L193.234 180.396C192.955 180.027 193.029 179.506 193.398 179.227C193.551 179.117 193.724 179.064 193.898 179.064C194.151 179.064 194.404 179.174 194.567 179.39L196.731 182.265Z" fill="white"/>
<path d="M202.195 171.124C202.306 171.277 202.359 171.451 202.359 171.625C202.359 171.883 202.248 172.131 202.033 172.293L199.158 174.457C198.789 174.731 198.263 174.657 197.989 174.294C197.715 173.925 197.789 173.399 198.152 173.125L201.027 170.961C201.395 170.682 201.922 170.762 202.195 171.124Z" fill="white"/>
<path d="M202.195 136.634C202.306 136.786 202.359 136.96 202.359 137.134C202.359 137.387 202.248 137.64 202.033 137.803L199.158 139.966C198.789 140.24 198.263 140.166 197.989 139.803C197.715 139.434 197.789 138.908 198.152 138.634L201.027 136.47C201.395 136.191 201.922 136.265 202.195 136.634Z" fill="white"/>
<path d="M196.731 147.774C197.005 148.143 196.93 148.669 196.567 148.943C196.198 149.217 195.672 149.143 195.398 148.78L193.234 145.905C192.955 145.536 193.029 145.015 193.398 144.736C193.551 144.626 193.724 144.573 193.898 144.573C194.151 144.573 194.404 144.683 194.567 144.899L196.731 147.774Z" fill="white"/>
<path d="M207.834 181.217C207.856 181.676 207.492 182.071 207.034 182.086L203.443 182.239C202.985 182.26 202.59 181.902 202.575 181.444V181.407C202.575 180.965 202.922 180.596 203.37 180.575L206.966 180.422C207.424 180.401 207.813 180.759 207.834 181.217Z" fill="white"/>
<path d="M202.195 205.616C202.306 205.769 202.359 205.942 202.359 206.116C202.359 206.374 202.248 206.622 202.033 206.785L199.158 208.949C198.789 209.223 198.263 209.149 197.989 208.785C197.715 208.417 197.789 207.89 198.152 207.616L201.027 205.452C201.395 205.178 201.922 205.253 202.195 205.616Z" fill="white"/>
<path d="M207.834 146.727C207.856 147.185 207.492 147.58 207.034 147.595L203.443 147.748C202.985 147.769 202.59 147.411 202.575 146.953V146.916C202.575 146.474 202.922 146.105 203.37 146.084L206.966 145.931C207.424 145.91 207.813 146.269 207.834 146.727Z" fill="white"/>
<path d="M207.834 215.709C207.856 216.167 207.492 216.562 207.034 216.577L203.443 216.736C202.985 216.751 202.59 216.393 202.575 215.935V215.898C202.575 215.456 202.922 215.087 203.37 215.066L206.966 214.913C207.424 214.893 207.813 215.251 207.834 215.709Z" fill="white"/>
<path d="M207.834 163.975C207.856 164.433 207.492 164.823 207.034 164.843L203.443 164.996C202.985 165.017 202.59 164.654 202.575 164.196V164.159C202.575 163.717 202.922 163.348 203.37 163.327L206.966 163.174C207.424 163.159 207.813 163.517 207.834 163.975Z" fill="white"/>
<path d="M202.195 188.373C202.306 188.52 202.359 188.694 202.359 188.873C202.359 189.126 202.248 189.374 202.033 189.536L199.158 191.7C198.789 191.98 198.263 191.906 197.989 191.537C197.715 191.173 197.789 190.647 198.152 190.368L201.027 188.204C201.395 187.931 201.922 188.004 202.195 188.373Z" fill="white"/>
<path d="M207.834 198.466C207.856 198.924 207.492 199.314 207.034 199.334L203.443 199.487C202.985 199.508 202.59 199.15 202.575 198.692V198.655C202.575 198.208 202.922 197.839 203.37 197.823L206.966 197.665C207.424 197.65 207.813 198.008 207.834 198.466Z" fill="white"/>
<path d="M202.195 153.882C202.306 154.03 202.359 154.203 202.359 154.382C202.359 154.635 202.248 154.883 202.033 155.046L199.158 157.209C198.789 157.489 198.263 157.415 197.989 157.046C197.715 156.677 197.789 156.156 198.152 155.877L201.027 153.713C201.395 153.44 201.922 153.513 202.195 153.882Z" fill="white"/>
</g>
<path d="M64.6076 140.3C64.5424 140.389 64.4706 140.473 64.3942 140.557C65.1709 140.967 65.7472 141.723 65.8895 142.656C66.0082 143.437 65.793 144.201 65.3556 144.796C64.9169 145.385 64.2525 145.818 63.4722 145.937L54.8686 147.25C53.308 147.488 51.8275 146.404 51.5887 144.838C51.4799 144.124 51.644 143.43 52.008 142.868C50.859 142.56 49.9411 141.592 49.7512 140.345C49.6225 139.499 49.8512 138.677 50.321 138.038C50.4803 137.828 50.6638 137.631 50.8696 137.47C49.8812 137.07 49.115 136.175 48.9427 135.049C48.8145 134.208 49.0433 133.387 49.5125 132.742C49.6019 132.627 49.6965 132.511 49.7994 132.411C48.7746 132.034 47.9778 131.12 47.8026 129.972C47.6738 129.126 47.9026 128.304 48.3724 127.665C48.8475 127.019 49.5584 126.556 50.4045 126.427L59.6837 125.012C61.376 124.754 62.9712 125.927 63.2294 127.619C63.3575 128.46 63.1288 129.281 62.6537 129.927C62.5655 130.048 62.4697 130.158 62.3668 130.258C63.3905 130.63 64.1931 131.542 64.3689 132.696C64.4977 133.542 64.2689 134.364 63.7991 135.003C63.641 135.218 63.4569 135.415 63.2464 135.582C64.239 135.97 65.0051 136.866 65.1768 137.992C65.3062 138.839 65.0774 139.661 64.6076 140.3Z" fill="white"/>
<path d="M77.1414 142.117L66.8267 151.525C61.8587 150.358 58.2525 146.734 58.2525 146.734L59.4273 125.248C59.4273 125.248 59.2815 121.048 59.0387 115.514C58.9516 113.616 59.4503 112.28 60.1341 111.344C61.2842 109.78 63.7332 110.283 64.1513 112.176L67.1666 125.787L77.1414 142.117Z" fill="white"/>
<path d="M59.6837 125.012C61.376 124.754 62.9712 125.927 63.2293 127.619C63.3575 128.46 63.1288 129.281 62.6537 129.927C62.5655 130.048 62.4696 130.158 62.3667 130.258C63.3904 130.63 64.1931 131.542 64.3689 132.696C64.4977 133.542 64.2689 134.364 63.7991 135.003C63.6409 135.218 63.4569 135.415 63.2464 135.582C64.2389 135.97 65.0051 136.866 65.1768 137.992C65.3056 138.838 65.0768 139.66 64.607 140.299C64.5418 140.388 64.47 140.472 64.3936 140.557C65.1703 140.967 65.7466 141.722 65.8889 142.656C66.0076 143.436 65.7924 144.2 65.355 144.795C64.9163 145.385 64.2519 145.818 63.4716 145.937L57.6151 146.83" stroke="#2B2B2B" stroke-width="0.9052" stroke-miterlimit="10"/>
<path d="M62.3673 130.258L50.1364 132.124" stroke="#2B2B2B" stroke-width="0.9052" stroke-miterlimit="10"/>
<path d="M63.247 135.583L51.5611 137.365" stroke="#2B2B2B" stroke-width="0.9052" stroke-miterlimit="10"/>
<path d="M64.3936 140.557L52.6342 142.351" stroke="#2B2B2B" stroke-width="0.9052" stroke-miterlimit="10"/>
<path d="M95.7939 163.911L101.597 170.776" stroke="#2B2B2B" stroke-width="0.9052" stroke-miterlimit="10"/>
<path d="M118.433 155.901C118.433 155.901 109.851 170.207 111.404 184.343" stroke="#2B2B2B" stroke-width="0.9052" stroke-miterlimit="10"/>
<path d="M175.644 157.699L181.855 183.199" stroke="#2B2B2B" stroke-width="0.9052" stroke-miterlimit="10"/>
<path d="M191.709 185.72L190.65 234.036H101.304L100.239 185.72C100.18 182.809 102.521 180.422 105.425 180.422H186.522C189.433 180.422 191.773 182.809 191.709 185.72Z" fill="white"/>
<path d="M103.232 229.622H186.596" stroke="#2B2B2B" stroke-miterlimit="10"/>
<path d="M101.304 234.036L100.331 187.628" stroke="#2B2B2B" stroke-miterlimit="10"/>
<path d="M190.65 234.036L191.71 187.628" stroke="#2B2B2B" stroke-miterlimit="10"/>
<path d="M82.6487 274.223C85.1765 277.323 88.9497 279.093 92.8893 279.093C93.4473 279.093 94.0059 279.055 94.5639 278.984L131.522 274.287L135.712 270.065L132.055 256.81H126.883L94.7956 252.542C89.9705 251.901 85.1841 253.961 82.3353 257.907L82.1812 258.118C78.6709 262.975 78.8631 269.584 82.6487 274.223Z" fill="#471B36"/>
<path d="M93.0193 253.426C89.8411 254.616 87.2863 257.271 86.0332 260.425C84.7802 263.579 84.7973 267.183 85.8921 270.395C86.987 273.608 89.1214 276.426 91.7956 278.516" stroke="white" stroke-miterlimit="10"/>
<path d="M129.415 271.45C128.94 267.252 128.222 263.081 127.268 258.966" stroke="#2B2B2B" stroke-miterlimit="10"/>
<path d="M117.748 259.685C119.118 263.463 119.502 267.594 118.851 271.559" stroke="white" stroke-miterlimit="10"/>
<path d="M114.003 260.302C115.529 263.82 116.002 267.787 115.344 271.565" stroke="white" stroke-miterlimit="10"/>
<path d="M110.224 260.67C112.002 263.994 112.727 267.872 112.269 271.615" stroke="white" stroke-miterlimit="10"/>
<path d="M97.2288 256.776C99.579 259.241 101.07 262.51 101.391 265.901C101.712 269.292 100.861 272.783 99.0163 275.645" stroke="#2B2B2B" stroke-miterlimit="10"/>
<path d="M137.062 249.859L146.94 274.379L214.372 250.618C221.981 247.937 226.649 240.81 226.649 233.272C226.649 230.755 226.132 228.198 225.026 225.746C220.687 216.085 209.103 212.08 199.725 217.002L137.062 249.859Z" fill="#2B2B2B"/>
<path d="M154.67 254.386L144.792 278.906L77.3602 255.145C69.7515 252.464 65.0828 245.337 65.0828 237.799C65.0828 235.282 65.6002 232.725 66.7056 230.273C71.0451 220.612 82.6287 216.607 92.0073 221.529L154.67 254.386Z" fill="#2B2B2B"/>
<path d="M154.338 255.213L145.974 275.973L164.856 278.25L169.105 262.232L154.338 255.213Z" fill="white"/>
<path d="M115.859 234.036L154.67 254.386L145.974 275.973" stroke="white" stroke-miterlimit="10"/>
<path d="M167.238 234.036L141.737 247.605" stroke="white" stroke-miterlimit="10"/>
<path d="M212.553 278.272C210.025 281.372 206.252 283.142 202.312 283.142C201.754 283.142 201.195 283.104 200.637 283.033L163.679 278.336L159.489 274.114L163.146 260.859H168.318L200.406 256.591C205.231 255.95 210.017 258.01 212.866 261.956L213.02 262.167C216.53 267.024 216.338 273.633 212.553 278.272Z" fill="#471B36"/>
<path d="M202.182 257.475C205.36 258.665 207.915 261.32 209.168 264.474C210.421 267.628 210.404 271.231 209.309 274.444C208.214 277.656 206.08 280.475 203.406 282.565" stroke="white" stroke-miterlimit="10"/>
<path d="M165.787 275.5C166.262 271.301 166.979 267.131 167.933 263.015" stroke="#2B2B2B" stroke-miterlimit="10"/>
<path d="M173.159 268.828C171.678 267.268 170.184 265.69 169.086 263.839C167.989 261.988 167.308 259.813 167.605 257.682C167.727 256.8 168.034 255.909 168.666 255.282C169.297 254.655 170.303 254.352 171.114 254.72C172.039 255.141 172.431 256.232 172.651 257.224C173.505 261.072 173.202 265.07 172.894 268.999C169.812 270.665 167.505 273.793 167.054 277.267C166.915 278.336 167.055 279.628 167.991 280.164C168.86 280.662 169.994 280.226 170.721 279.537C172.075 278.252 172.512 276.277 172.62 274.413C172.728 272.55 172.579 270.649 173.049 268.842" stroke="white" stroke-miterlimit="10"/>
<path d="M177.453 263.734C176.083 267.512 175.7 271.642 176.35 275.608" stroke="white" stroke-miterlimit="10"/>
<path d="M181.199 264.352C179.672 267.87 179.199 271.837 179.857 275.614" stroke="white" stroke-miterlimit="10"/>
<path d="M184.977 264.719C183.199 268.044 182.475 271.922 182.932 275.664" stroke="white" stroke-miterlimit="10"/>
<path d="M197.973 260.824C195.622 263.29 194.131 266.559 193.81 269.95C193.489 273.341 194.34 276.832 196.185 279.694" stroke="#2B2B2B" stroke-miterlimit="10"/>
<path d="M145.974 275.973L163.679 278.336" stroke="#2B2B2B" stroke-miterlimit="10"/>
<path d="M236.42 86.0603V105.252C236.42 106.416 235.468 107.363 234.309 107.363H212.171C211.013 107.363 210.06 106.416 210.06 105.252V86.0597C210.06 84.8955 211.013 83.9488 212.171 83.9488H234.309C235.468 83.9488 236.42 84.8954 236.42 86.0603Z" fill="#471B36"/>
<path d="M231.583 84.7108V105.963" stroke="#2B2B2B" stroke-width="0.8264" stroke-miterlimit="10"/>
<path d="M224.38 101.656C224.551 102.544 223.875 103.367 222.969 103.367H217.13C216.219 103.367 215.537 102.52 215.731 101.626L217.083 95.4583C215.89 94.5175 215.184 92.9946 215.384 91.3188C215.625 89.2549 217.312 87.5791 219.376 87.338C222.14 87.0205 224.486 89.1784 224.486 91.8774C224.486 93.1592 223.957 94.3234 223.098 95.1466L224.38 101.656Z" fill="#2B2B2B"/>
<path d="M212.465 83.9488V76.6223C212.465 71.7589 216.422 67.8023 221.285 67.8023H224.772C229.636 67.8023 233.592 71.7589 233.592 76.6223V83.9488" stroke="#2B2B2B" stroke-width="0.8264" stroke-miterlimit="10"/>
<path d="M230.064 83.9488V76.6223C230.064 73.7046 227.691 71.3303 224.772 71.3303H221.285C218.367 71.3303 215.993 73.7046 215.993 76.6223V83.9488" stroke="#2B2B2B" stroke-width="0.8264" stroke-miterlimit="10"/>
<path d="M237.252 112.392C242.547 112.392 246.839 108.099 246.839 102.804C246.839 97.5083 242.547 93.2157 237.252 93.2157C231.956 93.2157 227.664 97.5083 227.664 102.804C227.664 108.099 231.956 112.392 237.252 112.392Z" fill="white"/>
<path d="M237.252 111.16C241.867 111.16 245.608 107.419 245.608 102.804C245.608 98.1883 241.867 94.4469 237.252 94.4469C232.636 94.4469 228.895 98.1883 228.895 102.804C228.895 107.419 232.636 111.16 237.252 111.16Z" stroke="#2B2B2B" stroke-width="0.8264" stroke-miterlimit="10"/>
<path d="M236.03 109.143L230.023 103.136L233.128 100.029L236.03 102.931L241.374 97.5874L244.48 100.693L236.03 109.143Z" fill="#471B36"/>
<path d="M51.828 187.309C51.7351 187.309 51.6493 187.259 51.6034 187.179L49.1515 182.934C49.105 182.854 49.105 182.754 49.1515 182.674L51.6034 178.43C51.6499 178.35 51.7351 178.3 51.828 178.3C51.921 178.3 52.0068 178.349 52.0527 178.429L54.5105 182.673C54.557 182.754 54.557 182.854 54.5105 182.934L52.0527 187.179C52.0068 187.259 51.921 187.309 51.828 187.309ZM49.676 182.804L51.8286 186.529L53.9854 182.804L51.8286 179.079L49.676 182.804Z" fill="#2B2B2B"/>
<path d="M45.0096 182.223C44.1935 182.223 43.5284 181.559 43.5284 180.742C43.5284 179.926 44.1929 179.261 45.0096 179.261C45.8263 179.261 46.4902 179.925 46.4902 180.742C46.4896 181.559 45.8258 182.223 45.0096 182.223ZM45.0096 179.782C44.4798 179.782 44.0488 180.213 44.0488 180.742C44.0488 181.272 44.4798 181.703 45.0096 181.703C45.5394 181.703 45.9704 181.272 45.9704 180.742C45.9698 180.213 45.5388 179.782 45.0096 179.782Z" fill="#2B2B2B"/>
<path d="M49.3761 176.777C48.6628 176.777 48.0825 176.197 48.0825 175.483C48.0825 174.771 48.6628 174.19 49.3761 174.19C50.0893 174.19 50.6697 174.771 50.6697 175.483C50.6697 176.197 50.0893 176.777 49.3761 176.777ZM49.3761 174.71C48.9498 174.71 48.6022 175.057 48.6022 175.483C48.6022 175.91 48.9498 176.257 49.3761 176.257C49.8024 176.257 50.1499 175.91 50.1499 175.483C50.1499 175.057 49.8024 174.71 49.3761 174.71Z" fill="#2B2B2B"/>
<path d="M43.7883 177.373C43.2603 177.373 42.8311 176.943 42.8311 176.415C42.8311 175.887 43.2603 175.457 43.7883 175.457C44.3163 175.457 44.7456 175.887 44.7456 176.415C44.7462 176.943 44.3163 177.373 43.7883 177.373ZM43.7883 175.977C43.5472 175.977 43.3508 176.173 43.3508 176.415C43.3508 176.656 43.5472 176.852 43.7883 176.852C44.0294 176.852 44.2258 176.656 44.2258 176.415C44.2258 176.173 44.0294 175.977 43.7883 175.977Z" fill="#2B2B2B"/>
<path d="M93.0833 149.073C92.9904 149.073 92.9045 149.023 92.8587 148.943L90.983 145.695C90.9365 145.615 90.9365 145.516 90.983 145.435L92.8587 142.188C92.9051 142.107 92.9904 142.058 93.0833 142.058C93.1762 142.058 93.262 142.107 93.3079 142.188L95.1883 145.435C95.2348 145.516 95.2348 145.615 95.1883 145.696L93.3079 148.943C93.262 149.023 93.1762 149.073 93.0833 149.073ZM91.5075 145.565L93.0839 148.293L94.6633 145.565L93.0839 142.836L91.5075 145.565Z" fill="#2B2B2B"/>
<path d="M88.6445 144.197C87.8284 144.197 87.1633 143.533 87.1633 142.716C87.1633 141.9 87.8278 141.235 88.6445 141.235C89.4612 141.235 90.1251 141.9 90.1251 142.716C90.1251 143.533 89.4606 144.197 88.6445 144.197ZM88.6445 141.755C88.1147 141.755 87.6837 142.186 87.6837 142.716C87.6837 143.246 88.1147 143.677 88.6445 143.677C89.1743 143.677 89.6053 143.246 89.6053 142.716C89.6053 142.186 89.1743 141.755 88.6445 141.755Z" fill="#2B2B2B"/>
<path d="M93.011 140.534C92.2977 140.534 91.7173 139.954 91.7173 139.241C91.7173 138.527 92.2977 137.947 93.011 137.947C93.7242 137.947 94.3046 138.527 94.3046 139.241C94.3046 139.954 93.7242 140.534 93.011 140.534ZM93.011 138.468C92.5847 138.468 92.2371 138.814 92.2371 139.241C92.2371 139.668 92.5847 140.015 93.011 140.015C93.4373 140.015 93.7848 139.668 93.7848 139.241C93.7848 138.814 93.4378 138.468 93.011 138.468Z" fill="#2B2B2B"/>
<path d="M88.6445 139.165C88.1165 139.165 87.6873 138.736 87.6873 138.208C87.6873 137.68 88.1165 137.25 88.6445 137.25C89.1725 137.25 89.6018 137.68 89.6018 138.208C89.6018 138.736 89.1725 139.165 88.6445 139.165ZM88.6445 137.77C88.4034 137.77 88.207 137.966 88.207 138.208C88.207 138.449 88.4034 138.645 88.6445 138.645C88.8856 138.645 89.082 138.449 89.082 138.208C89.082 137.967 88.8856 137.77 88.6445 137.77Z" fill="#2B2B2B"/>
<path d="M217.201 159.386C217.108 159.386 217.022 159.336 216.976 159.256L214.524 155.011C214.478 154.932 214.478 154.832 214.524 154.752L216.976 150.507C217.022 150.427 217.108 150.377 217.201 150.377C217.294 150.377 217.379 150.427 217.426 150.507L219.884 154.751C219.93 154.832 219.93 154.931 219.884 155.012L217.426 159.257C217.379 159.337 217.294 159.386 217.201 159.386ZM215.049 154.882L217.201 158.607L219.358 154.882L217.201 151.157L215.049 154.882Z" fill="#2B2B2B"/>
<path d="M227.386 156.671C226.569 156.671 225.905 156.007 225.905 155.19C225.905 154.374 226.569 153.709 227.386 153.709C228.202 153.709 228.867 154.374 228.867 155.19C228.867 156.007 228.202 156.671 227.386 156.671ZM227.386 154.229C226.856 154.229 226.425 154.66 226.425 155.19C226.425 155.72 226.856 156.151 227.386 156.151C227.916 156.151 228.347 155.72 228.347 155.19C228.347 154.66 227.916 154.229 227.386 154.229Z" fill="#2B2B2B"/>
<path d="M214.883 148.855C214.17 148.855 213.589 148.274 213.589 147.562C213.589 146.848 214.17 146.268 214.883 146.268C215.596 146.268 216.176 146.848 216.176 147.562C216.176 148.274 215.596 148.855 214.883 148.855ZM214.883 146.788C214.457 146.788 214.11 147.135 214.11 147.562C214.11 147.988 214.457 148.335 214.883 148.335C215.31 148.335 215.657 147.988 215.657 147.562C215.657 147.135 215.309 146.788 214.883 146.788Z" fill="#2B2B2B"/>
<path d="M222.258 153.731C221.729 153.731 221.3 153.302 221.3 152.774C221.3 152.246 221.729 151.816 222.258 151.816C222.786 151.816 223.215 152.246 223.215 152.774C223.215 153.302 222.786 153.731 222.258 153.731ZM222.258 152.336C222.016 152.336 221.82 152.532 221.82 152.774C221.82 153.015 222.016 153.211 222.258 153.211C222.499 153.211 222.696 153.015 222.696 152.774C222.696 152.532 222.499 152.336 222.258 152.336Z" fill="#2B2B2B"/>
<path d="M222.552 148.855C222.459 148.855 222.373 148.805 222.327 148.725L220.787 146.059C220.74 145.979 220.74 145.879 220.787 145.799L222.327 143.133C222.373 143.053 222.459 143.003 222.552 143.003C222.645 143.003 222.73 143.053 222.777 143.133L224.321 145.799C224.367 145.879 224.367 145.979 224.321 146.06L222.777 148.725C222.73 148.805 222.644 148.855 222.552 148.855ZM221.312 145.929L222.552 148.075L223.795 145.929L222.552 143.783L221.312 145.929Z" fill="#2B2B2B"/>
<path d="M209.222 158.835C208.694 158.835 208.264 158.405 208.264 157.877C208.264 157.349 208.694 156.92 209.222 156.92C209.75 156.92 210.179 157.349 210.179 157.877C210.179 158.405 209.75 158.835 209.222 158.835ZM209.222 157.44C208.98 157.44 208.784 157.636 208.784 157.877C208.784 158.118 208.98 158.315 209.222 158.315C209.463 158.315 209.66 158.118 209.66 157.877C209.659 157.636 209.463 157.44 209.222 157.44Z" fill="#2B2B2B"/>
</svg>
