<svg width="42" height="42" viewBox="0 0 42 42" fill="none" xmlns="http://www.w3.org/2000/svg">
<g clip-path="url(#clip0_352_1057)">
<path d="M32.1562 30.1875C33.2436 30.1875 34.125 29.3061 34.125 28.2188C34.125 27.1314 33.2436 26.25 32.1562 26.25C31.0689 26.25 30.1875 27.1314 30.1875 28.2188C30.1875 29.3061 31.0689 30.1875 32.1562 30.1875Z" fill="#F8A709"/>
<path d="M11.1562 15.75L24.9749 8.85936C26.7251 7.90386 28.875 9.14811 28.875 11.1155V15.75H11.1562Z" fill="#471B36"/>
<path d="M27.5625 28.2188C27.5625 26.0439 28.0127 24.2812 30.1875 24.2812H37.4062V19.6875C37.4062 17.5127 35.6436 15.75 33.4688 15.75H5.25C3.07519 15.75 1.3125 17.5127 1.3125 19.6875V36.75C1.3125 38.9248 3.07519 40.6875 5.25 40.6875H33.4688C35.6436 40.6875 37.4062 38.9248 37.4062 36.75V32.1562H30.1875C28.0127 32.1562 27.5625 30.3936 27.5625 28.2188Z" fill="#F8A709"/>
<path d="M38.0625 23.625V19.6875C38.0625 17.1551 36.0019 15.0938 33.4688 15.0938H29.5312V11.1156C29.5312 9.96977 28.9373 8.93356 27.9425 8.34227C26.9259 7.73984 25.6994 7.71752 24.6829 8.27271L23.625 8.79968V6.66031C23.625 5.30384 22.8743 4.11996 21.6661 3.57199C20.5045 3.04568 19.1822 3.24518 18.2155 4.0924L5.6595 15.0938H5.25C2.71688 15.0938 0.65625 17.1551 0.65625 19.6875V36.75C0.65625 39.2825 2.71688 41.3438 5.25 41.3438H33.4688C36.0019 41.3438 38.0625 39.2825 38.0625 36.75V32.8125C39.8718 32.8125 41.3438 31.3406 41.3438 29.5313V26.9063C41.3438 25.097 39.8718 23.625 38.0625 23.625ZM25.2899 9.43559C25.9166 9.09368 26.6582 9.10615 27.2724 9.47102C27.865 9.82277 28.2188 10.437 28.2188 11.1156V15.0938H13.9427L25.2899 9.43559ZM19.0805 5.0794C19.6632 4.56884 20.4271 4.45137 21.124 4.76768C21.6982 5.02821 22.3125 5.66215 22.3125 6.66031V9.45396L11.002 15.0938H7.65122L19.0805 5.0794ZM36.75 36.75C36.75 38.5593 35.278 40.0313 33.4688 40.0313H5.25C3.44072 40.0313 1.96875 38.5593 1.96875 36.75V19.6875C1.96875 17.8782 3.44072 16.4063 5.25 16.4063H33.4688C35.278 16.4063 36.75 17.8782 36.75 19.6875V23.625H30.1875C26.9062 23.625 26.9062 27.0828 26.9062 28.2188C26.9062 29.3547 26.9062 32.8125 30.1875 32.8125H36.75V36.75ZM40.0312 29.5313C40.0312 30.6167 39.1479 31.5 38.0625 31.5H30.1875C29.0056 31.5 28.2188 30.9416 28.2188 28.2188C28.2188 25.496 29.0056 24.9375 30.1875 24.9375H38.0625C39.1479 24.9375 40.0312 25.8208 40.0312 26.9063V29.5313Z" fill="#2B2B2B"/>
<path d="M32.1562 25.5938C30.7086 25.5938 29.5312 26.7711 29.5312 28.2188C29.5312 29.6665 30.7086 30.8438 32.1562 30.8438C33.6039 30.8438 34.7812 29.6665 34.7812 28.2188C34.7812 26.7711 33.6039 25.5938 32.1562 25.5938ZM32.1562 29.5313C31.4324 29.5313 30.8438 28.9426 30.8438 28.2188C30.8438 27.4949 31.4324 26.9063 32.1562 26.9063C32.8801 26.9063 33.4688 27.4949 33.4688 28.2188C33.4688 28.9426 32.8801 29.5313 32.1562 29.5313ZM32.2284 11.004L31.8183 11.2501C31.6306 11.363 31.5118 11.5612 31.5007 11.779C31.4895 11.9976 31.5873 12.2069 31.7618 12.3382L34.3868 14.3069C34.503 14.3942 34.6421 14.4382 34.7806 14.4382C34.9073 14.4382 35.0339 14.4014 35.1448 14.3279L35.2603 14.2511C37.6537 12.6551 39.1512 10.0623 39.3514 7.21942H40.215C40.6691 7.21942 41.0747 6.94839 41.2479 6.52905C41.414 6.12742 41.3346 5.67198 41.0458 5.35239L38.0494 1.3217C37.7377 0.902358 37.2592 0.66217 36.7375 0.66217C36.2152 0.662827 35.7367 0.903014 35.4257 1.32301L32.4476 5.3327C32.1563 5.65492 32.0749 6.11495 32.2429 6.52117C32.4181 6.94511 32.8282 7.21876 33.287 7.21876H34.1978C34.3048 8.73339 33.5547 10.208 32.2284 11.004ZM35.4368 6.5612C35.4336 6.48967 35.4185 6.41683 35.3896 6.34661L35.3771 6.31642C35.3771 6.31576 35.3765 6.31576 35.3765 6.31511C35.3174 6.16876 35.2104 6.05523 35.0812 5.98501C35.0812 5.98501 35.0812 5.98436 35.0805 5.98436C35.0438 5.96533 35.005 5.94826 34.9657 5.93645C34.8987 5.91545 34.8272 5.90889 34.7563 5.90626H33.6564L36.4796 2.10461C36.563 1.99173 36.6772 1.97467 36.7375 1.97467C36.7979 1.97467 36.9121 1.99173 36.9967 2.10461L39.8239 5.90626H38.7188C38.3565 5.90626 38.0625 6.19961 38.0625 6.56251C38.0625 9.11073 36.8478 11.4837 34.7977 12.9741L33.3112 11.8585C34.9617 10.6516 35.7991 8.59361 35.4368 6.5612Z" fill="#2B2B2B"/>
</g>
<defs>
<clipPath id="clip0_352_1057">
<rect width="42" height="42" fill="white"/>
</clipPath>
</defs>
</svg>
