<svg width="42" height="42" viewBox="0 0 42 42" fill="none" xmlns="http://www.w3.org/2000/svg">
<g clip-path="url(#clip0_352_1070)">
<path d="M40.0312 34.7812H3.28125C2.23125 34.7812 1.3125 35.7 1.3125 36.75C1.3125 37.8 2.23125 38.7188 3.28125 38.7188H40.0312C41.0812 38.7188 42 37.8 42 36.75C42 35.7 41.0812 34.7812 40.0312 34.7812Z" fill="#D4B46A"/>
<path d="M39.375 41.3438V38.7188H3.9375V41.3438" fill="#471B36"/>
<path d="M18.375 11.8125V13.7812H17.0625C16.275 13.7812 15.75 13.2563 15.75 12.4688V11.1562C15.75 10.3687 16.275 9.84375 17.0625 9.84375H17.7188M32.8125 11.8125V13.7812H34.125C34.9125 13.7812 35.4375 13.2563 35.4375 12.4688V11.1562C35.4375 10.3687 34.9125 9.84375 34.125 9.84375H33.4688" fill="#1F2A3A"/>
<path d="M32.4188 10.8937H32.8125L34.125 7.21874C34.5188 5.51249 33.2063 3.93749 31.5 3.93749C31.5 1.96874 29.6625 0.393736 27.6938 0.787486L19.8188 2.09999C17.9813 2.36249 16.8 4.19999 17.0625 5.90624L18.375 10.8937H18.7688" fill="#2B2B2B"/>
<path d="M21.7875 22.7063L15.6187 24.8063C13.3875 25.4625 11.8125 27.5625 11.8125 29.925V34.7813H39.375V29.925C39.375 27.5625 37.8 25.4625 35.5688 24.675L29.4 22.575" fill="#F8A709"/>
<path d="M32.2875 10.8937C31.6313 10.8937 31.1063 10.3687 31.1063 9.71247V7.48122C31.1063 6.95622 30.5813 6.69372 30.1875 7.08747C27.9563 8.79372 24.9375 9.44997 22.1812 8.92497L21 8.66247C20.3438 8.66247 19.8188 9.18747 19.8188 9.84372C19.8188 10.5 19.2937 11.025 18.6375 11.025H18.375V13.125C18.375 17.0625 21.6562 20.3437 25.5938 20.3437C29.5312 20.3437 32.8125 17.0625 32.8125 13.125V10.8937H32.2875Z" fill="#FED8AA"/>
<path d="M21.6562 19.425V22.1812C21.6562 24.2812 25.4625 25.9875 25.4625 25.9875C25.4625 25.9875 29.2687 24.2812 29.2687 22.1812V19.425" fill="#FED8AA"/>
<path d="M39.375 34.7812V29.925C39.375 28.875 39.1125 27.9562 38.5875 27.0375C35.3062 27.4312 32.8125 30.1875 32.8125 33.6V34.65H39.375V34.7812Z" fill="#F8A709"/>
<path d="M40.0312 39.375H3.28125C1.8375 39.375 0.65625 38.1937 0.65625 36.75C0.65625 35.3062 1.8375 34.125 3.28125 34.125H40.0312C41.475 34.125 42.6562 35.3062 42.6562 36.75C42.6562 38.1937 41.475 39.375 40.0312 39.375ZM3.28125 35.4375C2.49375 35.4375 1.96875 35.9625 1.96875 36.75C1.96875 37.5375 2.49375 38.0625 3.28125 38.0625H40.0312C40.8187 38.0625 41.3438 37.5375 41.3438 36.75C41.3438 35.9625 40.8187 35.4375 40.0312 35.4375H3.28125Z" fill="#1F2A3A"/>
<path d="M39.375 42C38.9813 42 38.7188 41.7375 38.7188 41.3437V39.375H4.59375V41.3437C4.59375 41.7375 4.33125 42 3.9375 42C3.54375 42 3.28125 41.7375 3.28125 41.3437V38.7187C3.28125 38.325 3.54375 38.0625 3.9375 38.0625H39.375C39.7687 38.0625 40.0312 38.325 40.0312 38.7187V41.3437C40.0312 41.7375 39.7687 42 39.375 42ZM32.8125 11.55H32.4188C32.025 11.55 31.7625 11.2875 31.7625 10.8937C31.7625 10.5 32.025 10.2375 32.2875 10.2375L33.3375 7.08748C33.4688 6.56248 33.3375 5.90623 32.9438 5.51248C32.55 4.98748 32.025 4.72498 31.3687 4.72498C30.975 4.72498 30.7125 4.46248 30.7125 4.06873C30.7125 3.28123 30.3188 2.49373 29.7938 1.96873C29.2688 1.44373 28.4813 1.31248 27.6938 1.44373L19.8188 2.75623C19.1625 2.88748 18.5063 3.28123 18.1125 3.80623C17.7188 4.33123 17.5875 5.11873 17.7188 5.77498L18.9 10.2375C19.1625 10.2375 19.425 10.5 19.425 10.8937C19.425 11.2875 19.1625 11.55 18.7688 11.55H18.375C18.1125 11.55 17.85 11.2875 17.7188 11.025L16.4062 6.03748C16.1438 4.98748 16.4062 3.93748 17.0625 3.01873C17.7188 2.09998 18.6375 1.57498 19.6875 1.44373L27.5625 0.131228C28.7437 -2.21208e-05 29.7937 0.262478 30.7125 1.04998C31.5 1.70623 31.8937 2.62498 32.025 3.54373C32.8125 3.54373 33.6 3.93748 33.9937 4.59373C34.65 5.38123 34.9125 6.43123 34.65 7.34998L33.3375 11.025C33.3375 11.4187 33.075 11.55 32.8125 11.55Z" fill="#1F2A3A"/>
<path d="M32.6812 11.55H32.2875C31.3687 11.55 30.45 10.7625 30.45 9.71249V7.74374C28.0875 9.44999 24.9375 10.1062 22.05 9.58124L21 9.31874C20.8687 9.31874 20.6062 9.58124 20.6062 9.84374C20.6062 10.7625 19.8188 11.6812 18.7688 11.6812H18.375C17.9812 11.6812 17.7188 11.4187 17.7188 11.025C17.7188 10.6312 17.9812 10.3687 18.375 10.3687H18.7688C19.0313 10.3687 19.2937 10.1062 19.2937 9.84374C19.2937 8.92499 20.0813 8.00624 21.1313 8.00624L22.4438 8.26874C25.0688 8.79374 27.825 8.13749 29.925 6.56249C30.3187 6.29999 30.8437 6.29999 31.2375 6.43124C31.6312 6.56249 31.8937 7.08749 31.8937 7.48124V9.71249C31.8937 9.97499 32.1563 10.2375 32.4188 10.2375H32.8125C33.2062 10.2375 33.4688 10.5 33.4688 10.8937C33.4688 11.2875 33.075 11.55 32.6812 11.55ZM39.375 35.4375H11.8125C11.4187 35.4375 11.1562 35.175 11.1562 34.7812C11.1562 34.3875 11.4187 34.125 11.8125 34.125H38.7188V29.925C38.7188 27.825 37.4062 25.9875 35.4375 25.3312L29.2687 23.2312C28.875 23.1 28.7437 22.7062 28.875 22.4437C29.0063 22.05 29.4 21.9187 29.6625 22.05L35.8312 24.15C38.325 24.9375 40.0312 27.3 40.0312 30.0562V34.9125C40.0312 35.175 39.7687 35.4375 39.375 35.4375Z" fill="#1F2A3A"/>
<path d="M39.375 35.4375H32.8125C32.4188 35.4375 32.1562 35.175 32.1562 34.7812V33.7313C32.1562 30.0563 34.9125 26.9063 38.5875 26.5125C38.85 26.5125 39.1125 26.6437 39.2437 26.775C39.7687 27.6938 40.1625 28.875 40.1625 29.925V34.7812C40.0312 35.175 39.7687 35.4375 39.375 35.4375ZM33.4688 34.125H38.7188V29.925C38.7188 29.2687 38.5875 28.4813 38.1938 27.825C35.4375 28.35 33.3375 30.8438 33.3375 33.7313V34.125H33.4688ZM32.1562 17.85H27.5625C27.1687 17.85 26.9062 17.5875 26.9062 17.1938C26.9062 16.8 27.1687 16.5375 27.5625 16.5375H32.1562C33.6 16.5375 34.7812 15.3563 34.7812 13.9125V11.6812C34.7812 11.2875 35.0438 11.025 35.4375 11.025C35.8312 11.025 36.0938 11.2875 36.0938 11.6812V13.9125C36.0938 16.0125 34.2563 17.85 32.1562 17.85ZM18.375 14.4375H17.0625C16.0125 14.4375 15.0938 13.5188 15.0938 12.4688V11.1562C15.0938 10.1062 16.0125 9.1875 17.0625 9.1875H17.7188C18.1125 9.1875 18.375 9.45 18.375 9.84375C18.375 10.2375 18.1125 10.5 17.7188 10.5H17.0625C16.6687 10.5 16.4062 10.7625 16.4062 11.1562V12.4688C16.4062 12.8625 16.6687 13.125 17.0625 13.125H17.7188V11.8125C17.7188 11.4188 17.9813 11.1562 18.375 11.1562C18.7687 11.1562 19.0312 11.4188 19.0312 11.8125V13.7812C19.0312 14.175 18.7687 14.4375 18.375 14.4375Z" fill="#1F2A3A"/>
<path d="M34.125 14.4375H32.8125C32.4187 14.4375 32.1562 14.175 32.1562 13.7812V11.8125C32.1562 11.4188 32.4187 11.1562 32.8125 11.1562C33.2063 11.1562 33.4688 11.4188 33.4688 11.8125V13.125H34.125C34.5187 13.125 34.7812 12.8625 34.7812 12.4688V11.1562C34.7812 10.7625 34.5187 10.5 34.125 10.5H33.4688C33.075 10.5 32.8125 10.2375 32.8125 9.84375C32.8125 9.45 33.075 9.1875 33.4688 9.1875H34.125C35.175 9.1875 36.0938 10.1062 36.0938 11.1562V12.4688C36.0938 13.5188 35.175 14.4375 34.125 14.4375Z" fill="#1F2A3A"/>
<path d="M26.25 30.8438H3.9375V32.8125C3.9375 33.8625 4.85625 34.7812 5.90625 34.7812H24.2812C25.3312 34.7812 26.25 33.8625 26.25 32.8125V30.8438Z" fill="#6F6F6F"/>
<path d="M24.2812 35.4375H5.90625C4.4625 35.4375 3.28125 34.2562 3.28125 32.8125V30.8438C3.28125 30.45 3.54375 30.1875 3.9375 30.1875H26.25C26.6437 30.1875 26.9062 30.45 26.9062 30.8438V32.8125C26.9062 34.2562 25.725 35.4375 24.2812 35.4375ZM4.59375 31.5V32.8125C4.59375 33.6 5.11875 34.125 5.90625 34.125H24.2812C25.0688 34.125 25.5938 33.6 25.5938 32.8125V31.5H4.59375Z" fill="#1F2A3A"/>
<path d="M3.9375 17.7188H23.625V30.8438H3.9375V17.7188Z" fill="#6F6F6F"/>
<path d="M23.625 31.5H3.9375C3.54375 31.5 3.28125 31.2375 3.28125 30.8438V17.7188C3.28125 17.325 3.54375 17.0625 3.9375 17.0625H23.625C24.0187 17.0625 24.2812 17.325 24.2812 17.7188V30.8438C24.2812 31.2375 24.0187 31.5 23.625 31.5ZM4.59375 30.1875H22.9688V18.375H4.59375V30.1875Z" fill="#1F2A3A"/>
<path d="M25.5937 26.6437H25.3312C25.3312 26.6437 24.2812 26.1187 23.2312 25.4625C22.9687 25.2 22.8375 24.8062 23.1 24.5437C23.3625 24.2812 23.7562 24.15 24.0187 24.4125C24.675 24.8062 25.2 25.2 25.5937 25.3312C26.6437 24.8062 28.7437 23.4937 28.7437 22.1812V19.425C28.7437 19.0312 29.0062 18.7687 29.4 18.7687C29.7937 18.7687 30.0562 19.0312 30.0562 19.425V22.1812C30.0562 24.675 26.25 26.3812 25.8562 26.6437H25.5937Z" fill="#1F2A3A"/>
<path d="M25.5938 21C24.9375 21 24.15 20.8688 23.4937 20.7375C23.2312 20.6062 22.9688 20.3438 22.9688 20.0813V18.375H20.0813C19.95 18.375 19.6875 18.2438 19.5562 18.1125C18.375 16.6688 17.7188 14.9625 17.7188 13.125V11.1562C17.7188 10.7625 17.9812 10.5 18.375 10.5C18.7688 10.5 19.0312 10.7625 19.0312 11.1562V13.125C19.0312 14.5687 19.5562 16.0125 20.3438 17.0625H23.625C24.0188 17.0625 24.2812 17.325 24.2812 17.7188V19.5562C24.675 19.6875 25.2 19.6875 25.5938 19.6875C29.2688 19.6875 32.1562 16.8 32.1562 13.125V11.1562C32.1562 10.7625 32.4187 10.5 32.8125 10.5C33.2063 10.5 33.4688 10.7625 33.4688 11.1562V13.125C33.4688 17.4562 29.925 21 25.5938 21Z" fill="#1F2A3A"/>
<path d="M13.7812 25.5938C14.5061 25.5938 15.0938 25.0061 15.0938 24.2812C15.0938 23.5564 14.5061 22.9688 13.7812 22.9688C13.0564 22.9688 12.4688 23.5564 12.4688 24.2812C12.4688 25.0061 13.0564 25.5938 13.7812 25.5938Z" fill="#1F2A3A"/>
</g>
<defs>
<clipPath id="clip0_352_1070">
<rect width="42" height="42" fill="white"/>
</clipPath>
</defs>
</svg>
