<svg width="79" height="83" viewBox="0 0 79 83" fill="none" xmlns="http://www.w3.org/2000/svg">
<path d="M55.1069 34.509C53.6993 31.2865 52.8265 29.4291 53.1666 25.7607C53.4687 22.5024 53.9641 21.3255 56.4098 19.1512C61.153 22.52 68.0252 36.4174 70.0027 42.2297C70.5732 43.9069 71.1865 47.2195 71.5392 49.0926C71.7771 50.3567 71.9181 51.8729 72.2267 53.2351C72.0305 53.7332 71.9766 53.953 71.5346 54.2671C71.127 54.1196 71.2608 53.0425 70.9309 52.6238C69.9926 45.2056 68.641 40.5156 65.0586 33.8394C62.4958 29.0633 60.344 24.369 56.3197 20.5211C54.4392 22.5799 54.3235 24.802 54.2895 27.4631C54.2505 30.519 56.2276 33.0964 56.4594 35.9164C56.8594 40.7828 55.4241 45.8794 56.1034 50.7786C56.2057 51.5163 56.8491 54.3419 56.479 54.8121L55.9185 54.987C55.6426 55.1025 55.0832 55.6819 54.8374 55.9155C52.5729 58.7316 50.3291 61.4568 46.747 62.6783C46.0366 62.9205 45.3008 63.3319 44.573 63.5592C43.3562 63.9042 42.0818 64.0967 40.8658 64.4743C40.1574 64.6914 38.6257 64.7131 38.1388 65.2067C41.7054 67.8478 46.1367 70.91 50.4882 72.0243C51.9643 72.4024 55.266 71.3227 55.7478 71.5625C55.733 72.8808 52.5994 73.3913 51.554 73.4038C54.5094 76.6145 56.8954 78.1471 58.7784 82.2246C56.7083 81.3288 56.2977 79.9183 54.7327 78.3818C53.1411 76.8192 51.5342 75.0643 49.752 73.7233C47.9565 72.3722 45.778 71.5127 43.8834 70.3783C40.5781 68.3993 37.0494 65.9994 34.1809 63.4315C33.1786 63.737 31.9137 62.9488 30.9802 62.5412C27.7901 61.1416 24.9426 58.3969 23.0339 55.5139C22.2841 54.3812 21.7185 52.5688 21.0423 51.3298C20.7097 50.7203 20.8789 48.8492 20.5464 48.1605C20.4988 48.062 20.279 48.0509 20.177 48.031C17.691 47.8362 16.2473 44.1423 15.9995 42.025C15.9014 41.1877 16.0687 40.2369 16.0511 39.3818C16.0093 37.3608 15.5261 35.1304 16.4276 33.2222C16.8289 32.4031 17.8809 31.5487 18.4877 30.795C18.6747 28.2494 18.5991 23.6452 22.0257 23.0478C24.7222 22.5776 26.5425 23.6433 28.6991 25.1249C31.008 23.3801 33.2361 22.5947 36.0335 21.9365C36.9017 21.7448 37.0225 21.0122 38.6226 20.9967C40.6294 20.9773 42.7461 20.746 44.756 21.0166C44.8502 21.0293 44.8642 21.2135 44.8843 21.2935C44.9561 21.4417 45.0973 21.7556 45.1742 21.8798C47.1653 22.2196 48.9714 23.3068 50.6999 24.081C50.6524 24.6478 50.6233 25.0479 50.6328 25.6176C49.6239 24.5453 46.7233 23.3171 45.3166 23.027C45.1379 23.0765 45.1686 23.0403 45.0607 23.1584C44.9798 23.3657 44.8828 23.6463 44.7726 23.8324C44.5775 24.4186 44.1856 25.751 43.4957 25.8083C42.9432 25.4415 43.1786 23.5357 43.2347 22.9034C42.7257 22.9023 42.3623 22.8751 41.8586 22.8288C38.3248 22.8461 35.0313 22.8111 31.6995 24.4899C30.9136 24.8858 30.205 25.6272 29.5087 26.0832C30.4516 26.745 30.8361 27.1922 31.5394 28.1189L31.8396 27.9445C32.78 28.0073 33.9769 27.8622 34.6133 27.1134C36.2407 26.6731 41.6386 26.5219 43.2137 26.8515C43.4628 26.8267 43.6218 26.7837 43.8354 26.919C43.935 27.1864 43.9303 27.2457 43.9335 27.5226L44.0762 27.7245C44.5578 27.7719 45.1744 27.8349 45.5867 28.0973C45.4971 28.2242 45.3407 28.2286 45.1568 28.2798L45.1829 28.3588C45.5026 28.4214 45.7838 28.4801 46.099 28.5616C48.4141 29.0092 50.9717 31.378 52.8035 32.8108C53.4436 33.3113 54.1445 35.1805 54.9 34.6597C54.97 34.6109 55.039 34.5607 55.1069 34.509ZM28.6991 25.1249C26.5425 23.6433 24.7222 22.5776 22.0257 23.0478C18.5991 23.6452 18.6747 28.2494 18.4877 30.795C17.8809 31.5487 16.8289 32.4031 16.4276 33.2222C15.5261 35.1304 16.0093 37.3608 16.0511 39.3818C16.0687 40.2369 15.9014 41.1877 15.9995 42.025C16.2473 44.1423 17.691 47.8362 20.177 48.031C20.315 48.0194 20.3358 47.9894 20.4514 47.913C20.4261 47.6387 20.4293 47.7165 20.2068 47.4754C20.5542 47.257 20.5545 46.4061 20.7425 45.8229C20.7917 45.8994 20.8018 45.8876 20.8892 45.9423C21.059 45.7946 21.0865 45.7643 21.2854 45.6655C21.6136 45.7237 21.6221 45.9168 21.831 46.0818C22.2926 46.4466 21.6891 46.7665 21.9804 47.1645C22.205 47.2112 22.2318 47.2095 22.447 47.1305C22.5752 46.6654 22.2128 46.6668 22.3325 46.2449C22.6019 46.1137 23.1975 46.0802 23.5239 46.0406C24.1754 45.9614 24.7099 45.2444 25.076 44.7185C26.1764 43.1378 24.6187 41.4809 23.3455 40.6006L23.5804 40.4637C23.5942 40.0522 23.6108 39.6409 23.6302 39.2296C24.4447 39.1392 25.1024 39.0318 25.8293 39.4812C28.1733 38.4669 28.0265 36.3747 26.9093 34.4385C29.4341 34.6466 31.5382 34.4912 33.0747 32.2305C33.1498 30.7147 33.0236 30.5058 32.2827 29.1627L31.5394 28.1189C30.8361 27.1922 30.4516 26.745 29.5087 26.0832C30.205 25.6272 30.9136 24.8858 31.6995 24.4899C35.0313 22.8111 38.3248 22.8461 41.8586 22.8288C42.3623 22.8751 42.7257 22.9023 43.2347 22.9034C43.1786 23.5357 42.9432 25.4415 43.4957 25.8083C44.1856 25.751 44.5775 24.4186 44.7726 23.8324C44.8828 23.6463 44.9798 23.3657 45.0607 23.1584C45.1686 23.0403 45.1379 23.0765 45.3166 23.027C46.7233 23.3171 49.6239 24.5453 50.6328 25.6176C50.6233 25.0479 50.6524 24.6478 50.6999 24.081C48.9714 23.3068 47.1653 22.2196 45.1742 21.8798C45.0973 21.7556 44.9561 21.4417 44.8843 21.2935C44.8642 21.2135 44.8502 21.0293 44.756 21.0166C42.7461 20.746 40.6294 20.9773 38.6226 20.9967C37.0225 21.0122 36.9017 21.7448 36.0335 21.9365C33.2361 22.5947 31.008 23.3801 28.6991 25.1249Z" fill="#F5BA3B"/>
<path d="M36.0335 21.9364C36.9017 21.7448 37.0225 21.0122 38.6226 20.9967C40.6294 20.9773 42.7461 20.746 44.756 21.0165C44.8502 21.0293 44.8642 21.2135 44.8843 21.2934C44.9561 21.4417 45.0973 21.7556 45.1742 21.8798C47.1653 22.2196 48.9714 23.3068 50.6999 24.081C50.6524 24.6478 50.6233 25.0479 50.6328 25.6176C49.6239 24.5453 46.7233 23.317 45.3166 23.027C45.1379 23.0764 45.1686 23.0402 45.0607 23.1583C44.9798 23.3657 44.8828 23.6463 44.7726 23.8324C44.5775 24.4185 44.1856 25.751 43.4957 25.8083C42.9432 25.4415 43.1786 23.5357 43.2347 22.9033C42.7257 22.9023 42.3623 22.8751 41.8586 22.8288C38.3248 22.8461 35.0313 22.8111 31.6995 24.4899C30.9136 24.8858 30.205 25.6271 29.5087 26.0832C30.4516 26.745 30.8361 27.1921 31.5394 28.1189L32.2827 29.1626C33.0236 30.5058 33.1498 30.7146 33.0747 32.2305C31.5382 34.4911 29.4341 34.6466 26.9093 34.4384C28.0265 36.3747 28.1733 38.4669 25.8293 39.4812C25.1024 39.0318 24.4447 39.1391 23.6302 39.2296C23.6108 39.6408 23.5942 40.0522 23.5804 40.4637L23.3455 40.6005C24.6187 41.4809 26.1764 43.1378 25.076 44.7185C24.7099 45.2443 24.1754 45.9614 23.5239 46.0405C23.1975 46.0801 22.6019 46.1137 22.3325 46.2449C22.2128 46.6668 22.5752 46.6653 22.447 47.1305C22.2318 47.2094 22.205 47.2111 21.9804 47.1644C21.6891 46.7665 22.2926 46.4466 21.831 46.0818C21.6221 45.9168 21.6136 45.7237 21.2854 45.6655C21.0865 45.7642 21.059 45.7946 20.8892 45.9423C20.8018 45.8875 20.7917 45.8993 20.7425 45.8228C20.5545 46.4061 20.5542 47.257 20.2068 47.4754C20.4293 47.7165 20.4261 47.6387 20.4514 47.913C20.3358 47.9894 20.315 48.0194 20.177 48.031C17.691 47.8362 16.2473 44.1423 15.9995 42.0249C15.9014 41.1877 16.0687 40.2369 16.0511 39.3818C16.0093 37.3608 15.5261 35.1304 16.4276 33.2222C16.8289 32.4031 17.8809 31.5487 18.4877 30.795C18.6747 28.2494 18.5991 23.6452 22.0257 23.0478C24.7222 22.5776 26.5425 23.6433 28.6991 25.1249C31.008 23.3801 33.2361 22.5947 36.0335 21.9364ZM32.6161 32.4349C32.6989 31.8785 32.8339 30.81 32.3466 30.419C32.3318 30.8769 32.2074 32.2118 32.4454 32.4918L32.6161 32.4349ZM16.7934 40.2179C16.9006 39.7954 16.9466 39.5364 16.733 39.1408L16.5997 39.0407C16.5495 39.4443 16.5131 39.6813 16.5388 40.0941C16.6656 40.2296 16.5881 40.1806 16.7934 40.2179Z" fill="black"/>
<path d="M23.3453 40.6006C21.8578 39.7271 20.3018 39.0588 18.5486 39.149C18.2382 39.165 17.9837 39.1594 17.6763 39.1163C16.4959 38.1271 16.4991 32.0594 19.3985 32.2485C21.8607 32.4091 26.0821 34.3276 26.5966 37.0014C26.8853 38.5024 24.0588 38.3167 23.5997 38.8105L23.63 39.2297C23.6107 39.6409 23.5941 40.0523 23.5802 40.4638L23.3453 40.6006Z" fill="#FDF9E9"/>
<path d="M17.1137 40.2764C20.7974 40.2373 22.5078 40.4832 24.4281 43.8364C23.9039 44.2022 23.5149 44.2789 23.5869 44.9235C23.06 45.5633 21.0778 44.7895 20.7426 45.8229C20.5546 46.4061 20.5543 47.2571 20.2069 47.4754C20.096 47.377 20.003 47.2776 19.9737 47.134C19.8694 46.6229 19.3411 46.2079 18.9867 45.805C17.1508 43.7178 16.9919 42.8866 17.1137 40.2764Z" fill="#FDF9E9"/>
<path d="M44.3417 21.8656C43.9406 21.7469 43.5571 21.8608 43.2397 21.676L43.2866 21.4725C43.7868 21.0249 44.251 21.4103 44.8842 21.2935C44.956 21.4417 45.0972 21.7556 45.1741 21.8798C45.0037 21.8979 44.5364 21.8719 44.3417 21.8656Z" fill="#C4C3B4"/>
<path d="M41.8586 22.8288C43.055 22.7179 43.1007 22.8857 44.1151 22.9752C44.5161 22.8571 44.6612 23.1555 45.0608 23.1583C44.9798 23.3657 44.8829 23.6463 44.7726 23.8324C44.5776 24.4185 44.1856 25.751 43.4958 25.8083C42.9432 25.4415 43.1786 23.5357 43.2347 22.9033C42.7257 22.9023 42.3623 22.8751 41.8586 22.8288Z" fill="#3D3B39"/>
<path d="M44.115 22.9752C44.516 22.8571 44.6611 23.1555 45.0607 23.1583C44.9797 23.3657 44.8828 23.6463 44.7725 23.8324C44.6551 23.9425 44.6447 23.9454 44.5122 24.0218C44.1131 23.8275 44.3046 23.4409 44.115 22.9752Z" fill="#1D1C1B"/>
<path d="M20.0884 30.9846C19.8233 30.3824 19.696 29.7442 19.7183 29.0995C20.024 20.2507 27.3764 24.3179 30.6034 28.7507C31.6705 30.2166 31.6028 30.8236 31.5912 32.5664C30.5799 32.6074 29.5698 32.6744 28.562 32.7675C28.9296 33.0256 29.3877 32.7975 29.6408 32.9642C29.9468 32.9953 30.3557 33.0013 30.597 33.17L30.539 33.2782C29.3197 33.6116 27.9739 33.3764 26.8956 33.6212C26.4955 33.6737 26.1596 33.7444 25.7674 33.8273C23.1848 31.7352 22.573 32.2246 20.0884 30.9846Z" fill="#FDF9E9"/>
<path d="M26.8496 32.9568C27.1615 32.8349 28.1938 32.7789 28.562 32.7675C28.9297 33.0256 29.3878 32.7975 29.6408 32.9641C29.9469 32.9953 30.3557 33.0013 30.5971 33.1699L30.5391 33.2782C29.3198 33.6116 27.9739 33.3764 26.8957 33.6212C26.8577 33.402 26.8576 33.1797 26.8496 32.9568Z" fill="#F1E2C2"/>
<path d="M26.8496 32.9568C27.1615 32.8349 28.1938 32.7789 28.562 32.7675C28.9297 33.0256 29.3878 32.7975 29.6408 32.9641C29.3635 33.0091 27.0894 33.1265 26.8496 32.9568Z" fill="#3D3B39"/>
<path d="M32.3466 30.419C32.8339 30.8101 32.6988 31.8785 32.616 32.435L32.4453 32.4919C32.2073 32.2118 32.3318 30.877 32.3466 30.419Z" fill="#A28547" fill-opacity="0.984314"/>
<path d="M16.5998 39.0407L16.733 39.1408C16.9467 39.5364 16.9007 39.7954 16.7934 40.2179C16.5882 40.1806 16.6657 40.2296 16.5389 40.0941C16.5131 39.6813 16.5496 39.4443 16.5998 39.0407Z" fill="#615E60" fill-opacity="0.980392"/>
<path d="M55.1071 34.509C53.6994 31.2865 52.8267 29.4291 53.1668 25.7607C53.4688 22.5024 53.9642 21.3255 56.41 19.1512C61.1531 22.52 68.0253 36.4174 70.0028 42.2297C70.5734 43.9069 71.1866 47.2195 71.5393 49.0926C71.7773 50.3567 71.9182 51.8729 72.2269 53.2351C72.0306 53.7332 71.9767 53.953 71.5348 54.2671C71.1272 54.1196 71.261 53.0425 70.931 52.6238C69.9927 45.2056 68.6411 40.5156 65.0588 33.8394C62.4959 29.0633 60.3442 24.369 56.3199 20.5211C54.4394 22.5799 54.3236 24.802 54.2896 27.4631C54.2506 30.519 56.2277 33.0964 56.4595 35.9164C56.8595 40.7828 55.4243 45.8794 56.1036 50.7786C56.2058 51.5163 56.8493 54.3419 56.4792 54.8121L55.9187 54.987C55.6428 55.1025 55.0834 55.6819 54.8375 55.9155C52.573 58.7316 50.3293 61.4568 46.7471 62.6783C46.0368 62.9205 45.3009 63.3319 44.5732 63.5592C43.3563 63.9042 42.0819 64.0967 40.866 64.4743C40.1576 64.6914 38.6258 64.7131 38.139 65.2067C41.7055 67.8478 46.1369 70.91 50.4883 72.0243C51.9645 72.4024 55.2661 71.3227 55.7479 71.5625C55.7331 72.8808 52.5996 73.3913 51.5541 73.4038C54.5096 76.6145 56.8955 78.1471 58.7785 82.2246C56.7085 81.3288 56.2979 79.9183 54.7329 78.3818C53.1413 76.8192 51.5344 75.0643 49.7522 73.7233C47.9567 72.3722 45.7782 71.5127 43.8836 70.3783C40.5783 68.3993 37.0496 65.9994 34.1811 63.4315C33.6566 62.8003 32.4191 61.7573 31.7604 61.1253C30.2027 59.6369 28.7009 58.0911 27.2583 56.4909C25.4233 54.434 23.5738 52.5167 22.2669 50.1092C22.1881 49.9639 22.1844 50.1568 21.9751 50.1587C21.7732 49.6836 21.6461 48.6354 21.8311 48.1335C22.0604 47.9329 21.9856 47.9918 22.3705 48.0047C22.6579 48.2098 22.971 48.9829 23.1565 49.3071C23.6096 50.0997 24.2563 50.8951 24.8235 51.6041C26.8138 54.0922 28.3244 55.5994 31.2925 56.8852C32.5796 57.4429 32.7786 57.6485 34.3133 58.1269C34.3683 57.4068 34.8229 54.3117 36.084 54.9935C36.1806 55.4501 35.5627 58.1684 35.432 58.8064C37.4213 58.982 44.2365 59.0319 45.9532 58.5745L46.1192 58.5358C46.1146 58.4094 46.1079 58.283 46.0988 58.1568L46.3819 58.0151C47.6226 57.6563 51.0504 55.6455 51.9865 54.6785C52.8284 53.8087 53.8943 52.6281 54.9222 51.9507C54.8533 50.6721 54.8175 49.3921 54.815 48.1118C54.1913 47.9746 52.6447 47.2997 51.9998 46.9864C51.8368 46.9072 51.9352 46.2955 52.1584 46.0772C52.969 46.2054 53.6542 46.2776 54.4698 46.3607L54.8016 46.3342C54.866 45.337 54.9138 44.1312 55.0604 43.1574C55.5422 39.958 56.3452 37.6835 55.1071 34.509Z" fill="black"/>
<path d="M44.7399 59.6981C47.6638 59.1869 50.7111 57.3089 52.9356 55.3474C53.4724 54.8742 54.9653 53.1512 55.5219 52.9641C55.6894 53.1281 55.6849 53.3751 55.7198 53.6248C55.7684 53.8991 55.861 54.87 55.9185 54.987C55.6426 55.1025 55.0832 55.6819 54.8373 55.9155C52.5728 58.7316 50.3291 61.4568 46.7469 62.6783C46.0366 62.9205 45.3007 63.3319 44.573 63.5592C43.3562 63.9042 42.0817 64.0967 40.8658 64.4743C40.1574 64.6914 38.6257 64.7131 38.1388 65.2067C36.9663 64.3448 30.9735 59.0748 30.5747 58.0462C31.0418 58.0816 31.3344 58.3315 31.6389 58.6545C32.6775 58.7982 34.8031 59.4063 35.805 59.7754C36.4862 59.8599 36.7442 59.6225 37.4325 59.6251L44.7399 59.6981Z" fill="#F5BA3B"/>
<path d="M35.8051 59.7754C36.4862 59.8599 36.7443 59.6226 37.4326 59.6251L44.74 59.6981C44.2618 59.8175 43.9079 59.8326 43.4619 59.9112C43.2368 59.9509 43.2554 60.3084 42.8229 60.4115C40.7597 60.9036 37.7646 60.5137 35.8051 59.7754Z" fill="#6B5833"/>
<path d="M55.7197 53.6248C55.7683 53.8991 55.8609 54.87 55.9184 54.987C55.6425 55.1025 55.0831 55.6819 54.8373 55.9155C54.8386 55.0845 55.1088 54.2115 55.7197 53.6248Z" fill="#E9B64D"/>
<path d="M54.8014 46.3342C54.7995 46.7031 54.803 47.072 54.812 47.4408C54.4583 47.3448 54.0799 47.2752 53.7987 47.0466L53.7587 46.8997C54.1472 46.4791 54.3244 46.7277 54.4695 46.3607L54.8014 46.3342Z" fill="#A28547"/>
<path d="M40.6731 36.2321C41.0581 37.4673 41.5718 38.6115 41.9571 39.8271C42.1435 40.4151 42.0142 41.3486 42.1501 42.0482C42.3684 43.1723 42.865 44.1997 43.1525 45.2624L41.598 45.1777C41.2289 43.4778 41.5156 41.8694 39.266 42.2216L39.1372 41.0296C39.1405 40.4921 39.1251 39.8955 39.2017 39.3678L39.5994 39.3903C39.9006 39.4145 39.791 39.445 40.0244 39.2971C40.1995 38.9971 40.1862 38.5712 40.2065 38.2149C40.7057 37.3887 40.5149 37.1808 40.6731 36.2321Z" fill="#282214"/>
<path d="M34.6133 27.1133C36.2407 26.6731 41.6386 26.5218 43.2137 26.8514C43.4628 26.8267 43.6218 26.7837 43.8355 26.9189C43.935 27.1863 43.9304 27.2456 43.9335 27.5226L44.0762 27.7245C43.6715 27.6744 43.1224 27.6462 42.7052 27.6137C41.5205 27.6145 40.0171 27.5796 38.8661 27.6882L38.1067 27.6915L37.1789 27.6772C35.6787 27.6207 33.0829 27.603 32.2827 29.1626L31.5394 28.1189L31.8396 27.9444C32.78 28.0072 33.9769 27.8621 34.6133 27.1133Z" fill="#F6DFA8"/>
<path d="M43.2138 26.8515C43.4628 26.8267 43.6218 26.7837 43.8355 26.919C43.935 27.1864 43.9304 27.2457 43.9335 27.5226L44.0762 27.7245C43.6715 27.6744 43.1224 27.6463 42.7052 27.6138C42.5708 27.5825 42.3998 27.5488 42.2718 27.5055L42.2896 27.4168L42.7435 27.326L42.2302 27.2778L42.2255 27.2236C42.5762 27.1432 42.9396 27.096 43.2138 26.8515Z" fill="#F1E2C2"/>
<path d="M39.7267 33.332C39.8763 33.7955 40.1557 34.5843 40.257 35.0327C40.3975 35.3854 40.6128 35.8703 40.6732 36.2322C40.515 37.1808 40.7058 37.3888 40.2066 38.2149C40.1863 38.5712 40.1996 38.9971 40.0245 39.2971C39.7911 39.445 39.9007 39.4145 39.5995 39.3903L39.2018 39.3678C39.3431 38.5367 39.2699 37.3445 39.2374 36.4806L39.2172 36.1039C39.2571 35.672 39.4961 34.985 39.5607 34.5099C39.6216 34.0614 39.602 33.7769 39.7267 33.332Z" fill="#3F330B"/>
<path d="M40.257 35.0327C40.3975 35.3854 40.6129 35.8703 40.6732 36.2321C40.515 37.1808 40.7058 37.3887 40.2066 38.2149C40.2117 37.6648 40.1839 37.5996 39.7544 37.2511C39.7895 37.1851 39.8549 37.0576 39.9124 37.0152C40.4247 36.6381 40.2111 35.8236 40.257 35.0327Z" fill="#574219"/>
<path d="M39.7545 37.2511C40.184 37.5997 40.2118 37.6648 40.2067 38.2149C40.1864 38.5712 40.1997 38.9971 40.0246 39.2971C39.7912 39.445 39.9008 39.4145 39.5996 39.3903C39.6061 38.8653 39.5669 37.6728 39.7545 37.2511Z" fill="#6B5833"/>
<path d="M38.1819 29.1849C38.4385 30.1824 38.671 29.8439 39.0175 30.7076L39.2359 31.6031C39.2276 32.6807 38.9295 32.9623 38.5706 33.969C38.4446 33.7971 38.3462 33.6574 38.2312 33.4759C38.1978 33.0648 37.5534 30.2139 37.4316 29.5884L37.8848 29.6391C38.142 29.4769 38.0649 29.5304 38.1819 29.1849Z" fill="#282214"/>
<path d="M39.2358 31.6031C39.4538 32.2379 39.5725 32.6773 39.7268 33.332C39.602 33.7769 39.6217 34.0613 39.5608 34.5099C39.4962 34.985 39.2572 35.672 39.2173 36.1039C39.1498 35.4368 39.0109 34.995 38.7724 34.3817L38.7155 34.218L38.3192 34.4947C38.3074 34.1733 38.2623 33.8001 38.2312 33.4758C38.3462 33.6574 38.4446 33.797 38.5706 33.9689C38.9295 32.9623 39.2275 32.6807 39.2358 31.6031Z" fill="#574219"/>
<path d="M23.6302 39.2296C24.4448 39.1392 25.1025 39.0318 25.8294 39.4812C25.2845 39.8264 24.2224 40.5354 23.5804 40.4637C23.5943 40.0522 23.6109 39.6408 23.6302 39.2296Z" fill="#574219"/>
<path d="M38.1067 27.6915L38.8661 27.6882C38.8193 28.9391 39.0008 29.6547 39.0173 30.7075C38.6708 29.8438 38.4383 30.1824 38.1817 29.1849C38.0672 28.6066 38.0294 28.2751 38.1067 27.6915Z" fill="#E9B64D"/>
<path d="M37.1792 27.6773L38.107 27.6915C38.0297 28.2751 38.0675 28.6067 38.182 29.1849C38.0651 29.5304 38.1422 29.4769 37.8849 29.6391L37.4318 29.5884C37.3254 29.068 37.2468 28.2258 37.1792 27.6773Z" fill="black"/>
<path d="M38.3191 34.4947L38.7154 34.218L38.7723 34.3817C39.0108 34.995 39.1497 35.4368 39.2172 36.1039L39.2374 36.4805L39.1539 36.3415C38.9136 36.238 38.9133 36.3033 38.6013 36.4152L38.54 36.4014C38.3182 36.1835 38.3323 34.8723 38.3191 34.4947Z" fill="#E9B64D"/>
<path d="M38.3191 34.4947L38.7154 34.218L38.7723 34.3817C38.4797 34.9024 38.6458 35.8229 38.6013 36.4152L38.54 36.4014C38.3182 36.1835 38.3323 34.8723 38.3191 34.4947Z" fill="#6B5833"/>
<path d="M44.0762 27.7245C44.5578 27.7719 45.1744 27.8349 45.5867 28.0973C45.4972 28.2242 45.3407 28.2286 45.1569 28.2798L45.183 28.3588C45.5026 28.4214 45.7838 28.4801 46.099 28.5616C45.5293 28.5926 44.4836 28.781 44.1018 28.323C43.9518 28.1432 44.044 27.9508 44.0762 27.7245Z" fill="#E9B64D"/>
<path d="M38.6321 39.4365L39.2018 39.3678C39.1252 39.8955 39.1406 40.4922 39.1373 41.0297C38.9121 40.9844 38.876 41.0234 38.6545 41.1253C38.6202 40.3405 38.5247 40.2486 38.6321 39.4365Z" fill="#E9B64D"/>
<path d="M43.7728 58.1634C44.6269 58.0538 45.5208 57.9273 46.3816 58.0151L46.0985 58.1568C46.1076 58.283 46.1143 58.4094 46.1189 58.5357L45.9529 58.5744C45.656 58.2263 44.2772 58.2027 43.7728 58.1634Z" fill="#282214"/>
<path d="M38.6544 41.1253C38.5553 41.245 38.6127 41.1917 38.4413 41.2589C38.1878 40.9746 38.2332 39.7904 38.3925 39.4455L38.6319 39.4365C38.5245 40.2485 38.6201 40.3405 38.6544 41.1253Z" fill="#574219"/>
<path d="M6.55649 21.978C6.98628 21.8959 7.611 21.7934 8.01992 21.6867C7.90509 23.1192 7.77451 24.4688 8.04105 25.8945C8.21406 26.4479 8.96071 28.4239 9.39401 28.8626C9.49276 28.9626 9.78162 28.8939 9.9839 29.1567L9.95558 29.2982C9.30759 29.4229 8.61708 29.4852 8.01025 29.6135C7.87411 30.1238 8.16666 30.8295 8.33488 31.3487C7.62118 31.5932 5.31467 32.3424 4.8551 32.7386L4.74832 32.8835C4.50077 32.6625 4.46253 31.6232 4.37782 31.1798C3.93604 30.3443 3.95367 30.4 3.30645 29.8702C3.15021 29.2236 2.65145 28.4239 2.11683 28.0231C1.46114 27.1451 1.03077 26.7145 0.176025 26.0312C1.40861 25.8705 2.20291 25.9101 3.40964 25.4957C4.87992 24.6444 5.89344 23.5707 6.55649 21.978Z" fill="#E9B64D"/>
<path d="M7.37022 27.1183C7.91929 26.5937 7.62769 26.184 8.0408 25.8944C8.21381 26.4479 8.96046 28.4238 9.39376 28.8625C9.4925 28.9626 9.78137 28.8939 9.98365 29.1566L9.95533 29.2982C9.30734 29.4229 8.61682 29.4851 8.00999 29.6135C7.87386 30.1238 8.16641 30.8294 8.33463 31.3486C7.62093 31.5932 5.31442 32.3423 4.85485 32.7386L4.74806 32.8834C4.50052 32.6624 4.46227 31.6231 4.37756 31.1797C4.69801 30.8562 4.66908 30.7955 4.68363 30.4096C5.47178 29.2211 7.73327 28.6776 7.92853 28.386C7.59911 27.8483 7.53836 27.7241 7.37022 27.1183Z" fill="black"/>
<path d="M4.85498 32.7386C5.64304 31.5029 6.22968 29.8115 8.01012 29.6135C7.87399 30.1238 8.16654 30.8294 8.33476 31.3487C7.62106 31.5932 5.31455 32.3423 4.85498 32.7386Z" fill="#E9B64D"/>
<path d="M6.55639 21.978C6.98619 21.8959 7.6109 21.7934 8.01982 21.6867C7.90499 23.1192 7.77442 24.4688 8.04095 25.8945C7.62784 26.184 7.91945 26.5937 7.37038 27.1183C7.06927 26.4741 6.60414 25.9225 6.17229 25.3631C5.43103 25.6747 4.33793 26.2607 3.56776 26.6239L3.75001 26.374C3.79185 26.0249 3.75412 25.9338 3.65529 25.5936L3.40955 25.4957C4.87982 24.6445 5.89334 23.5707 6.55639 21.978Z" fill="#1F2022"/>
<path d="M0.176025 26.0312C1.40861 25.8705 2.20291 25.9101 3.40964 25.4956L3.65539 25.5936C3.75422 25.9338 3.79195 26.0248 3.75011 26.374L3.56785 26.6239L2.73419 26.9836C3.9861 28.2682 4.21635 28.6672 4.68388 30.4096C4.66934 30.7955 4.69826 30.8562 4.37782 31.1797C3.93604 30.3443 3.95367 30.4 3.30645 29.8702C3.15021 29.2235 2.65145 28.4238 2.11683 28.0231C1.46114 27.1451 1.03077 26.7145 0.176025 26.0312Z" fill="black"/>
<path d="M40.2475 1.46943C40.278 0.815755 40.2847 0.519442 40.7109 0.0568232C40.9981 -0.0198521 40.8813 -0.0313693 41.1486 0.100624C41.338 0.371935 41.4322 0.479911 41.5146 0.802159C41.5739 1.30437 41.861 4.21842 41.7989 4.60866C41.9941 6.75758 42.0393 9.12473 42.0537 11.2954C40.9293 11.6136 41.6275 12.7923 40.785 13.2923C40.4977 13.2077 40.4651 13.1465 40.2108 13.2165C40.2144 13.6169 40.2343 13.7801 40.015 14.0759C39.0824 14.4918 39.3872 13.6262 39.0175 13.2036C38.7623 13.1552 38.6524 13.1682 38.4005 13.1818L38.2779 13.0453C38.1157 11.9967 38.1272 9.51739 38.1367 8.38185C38.1527 6.48294 38.0698 4.18653 38.1788 2.30854C38.1859 2.05972 38.16 1.93992 38.3169 1.75437C38.8747 1.55397 39.5967 1.5945 40.2103 1.57684L40.2475 1.46943Z" fill="#E9B64D"/>
<path d="M40.2472 1.46943C40.2778 0.815755 40.2845 0.519442 40.7107 0.0568232C40.9979 -0.0198521 40.881 -0.0313693 41.1484 0.100624C41.3378 0.371935 41.432 0.479911 41.5144 0.802159C41.5737 1.30437 41.8607 4.21842 41.7987 4.60866C41.9939 6.75758 42.0391 9.12473 42.0534 11.2954L41.2979 11.2675L40.2279 11.2527C40.3343 10.2116 40.2027 8.88489 40.2637 7.755C40.2963 7.53483 40.259 6.14706 40.2738 5.73033C40.1622 4.71835 40.2351 2.57272 40.2472 1.46943Z" fill="#6B5833"/>
<path d="M40.2638 7.755C40.432 7.56993 40.5068 7.58704 40.6973 7.39965C40.9595 7.37766 40.8567 7.34823 41.0795 7.52432C41.5321 8.56283 41.2046 8.46605 41.3202 9.11002C41.3079 9.82911 41.3005 10.5483 41.2979 11.2675L40.2279 11.2527C40.3343 10.2116 40.2027 8.8849 40.2638 7.755Z" fill="#A28547"/>
<path d="M41.3203 9.11C41.5324 8.81985 41.3599 5.72312 41.4336 5.18509C41.4825 4.82903 41.5264 4.82109 41.7989 4.60865C41.9941 6.75757 42.0393 9.12471 42.0536 11.2953L41.2981 11.2674C41.3007 10.5483 41.3081 9.82909 41.3203 9.11Z" fill="#282214"/>
<path d="M40.2739 5.73034C40.4397 6.15886 40.1392 6.90527 40.4409 7.27028L40.5367 7.17907C40.7374 7.21424 40.8515 7.25959 41.0291 7.1694C41.2758 6.47881 41.3633 2.35006 41.3838 1.33615L41.351 1.39596C41.243 1.06176 41.296 1.03222 41.5144 0.802177C41.5737 1.30439 41.8608 4.21843 41.7988 4.60868C41.5262 4.82112 41.4823 4.82906 41.4335 5.18512C41.3597 5.72316 41.5322 8.81988 41.3202 9.11003C41.2047 8.46606 41.5321 8.56284 41.0796 7.52433C40.8568 7.34823 40.9595 7.37767 40.6974 7.39966C40.5068 7.58705 40.432 7.56993 40.2638 7.75501C40.2963 7.53485 40.259 6.14707 40.2739 5.73034Z" fill="#574219"/>
<path d="M38.1788 2.30855C38.6257 2.42824 38.7346 2.45992 39.192 2.45196C39.0641 3.76331 39.1465 6.51615 39.1477 7.90585C39.1488 9.22716 39.0943 11.9069 39.2197 13.0785C39.471 13.3717 39.8515 13.2967 40.2108 13.2165C40.2144 13.6169 40.2343 13.7801 40.015 14.0759C39.0824 14.4918 39.3872 13.6262 39.0175 13.2036C38.7623 13.1552 38.6524 13.1682 38.4005 13.1818L38.2779 13.0454C38.1157 11.9967 38.1272 9.5174 38.1367 8.38185C38.1527 6.48295 38.0698 4.18654 38.1788 2.30855Z" fill="#F4D48F"/>
<path d="M40.2279 11.2526L41.2979 11.2675L42.0535 11.2953C40.929 11.6136 41.6273 12.7923 40.7848 13.2923C40.4975 13.2076 40.4649 13.1465 40.2106 13.2165C40.1752 12.6323 40.1549 11.8233 40.2279 11.2526Z" fill="#F4D48F"/>
<path d="M38.1786 2.30854C38.1857 2.05972 38.1598 1.93992 38.3167 1.75437C38.8745 1.55397 39.5964 1.5945 40.2101 1.57684C40.209 1.86484 40.2514 2.18212 40.0648 2.38622C39.8132 2.50148 39.4786 2.4611 39.1918 2.45196C38.7343 2.45991 38.6255 2.42823 38.1786 2.30854Z" fill="#F1E2C2"/>
<path d="M26.2987 5.79085C28.4224 5.62604 34.6749 13.2151 36.2461 14.8553C37.1453 15.7941 38.1343 17.3614 39.1639 18.2972C39.0499 18.8757 38.9258 19.4521 38.7917 20.0263C38.2549 18.6633 36.4741 16.8425 35.4589 15.6944C33.1809 13.1181 30.886 10.1641 28.163 8.04676C26.1755 6.69777 25.2527 6.67355 25.1902 9.37046C25.1245 12.1994 26.1942 14.9713 27.381 17.4922C27.8352 18.4572 29.9381 21.9085 29.4918 22.8394C28.3477 23.0751 25.5311 15.7951 25.0966 14.6614C23.9928 11.7804 22.6839 7.42385 26.2987 5.79085Z" fill="black"/>
<path d="M8.20721 9.28482C8.60184 9.26523 8.65164 9.19797 8.94624 9.36003C9.04122 9.63085 8.99553 9.96233 8.97807 10.2564C9.86162 10.3125 11.0294 10.3582 11.9207 10.3006C12.3876 10.2681 12.8049 10.228 13.2042 10.5053L13.2712 10.6693C12.833 11.3106 11.7981 12.7578 11.9819 13.596C12.081 14.0474 13.0191 15.3078 12.9385 15.8863C12.4651 16.1522 11.5263 15.427 11.1829 15.08C9.89337 14.8816 8.91518 14.9352 7.63264 15.0496C7.44106 15.0667 7.36918 14.9673 7.27104 14.8394C7.25889 14.1859 7.92536 13.4986 8.24666 12.9636C8.19386 12.6378 8.19857 11.6751 8.1925 11.2998C7.94042 11.2883 7.79727 11.2924 7.55195 11.2128C7.1035 10.8297 7.22004 10.0288 7.13123 9.29346L8.20721 9.28482Z" fill="black"/>
<path d="M8.20721 9.28482C8.60184 9.26523 8.65164 9.19797 8.94624 9.36003C9.04122 9.63085 8.99553 9.96233 8.97807 10.2564C9.86162 10.3125 11.0294 10.3582 11.9207 10.3006C11.7521 10.5129 11.4513 10.8338 11.4184 11.0787C11.2646 11.394 11.0694 11.7163 11.082 12.0616C10.7421 12.0218 10.4126 11.9872 10.0897 12.0985C9.98278 11.8224 9.87232 11.5478 9.75843 11.2746C9.38468 11.2614 9.32898 11.194 9.07279 11.3618C8.99844 11.602 9.02163 11.7905 9.03275 12.0385C8.8386 11.8376 8.69169 11.6275 8.43268 11.5834C8.17718 11.8971 8.35858 12.4938 8.24666 12.9636C8.19386 12.6378 8.19857 11.6751 8.1925 11.2998C7.94042 11.2883 7.79727 11.2924 7.55195 11.2128C7.1035 10.8297 7.22004 10.0288 7.13123 9.29346L8.20721 9.28482Z" fill="#1D1C1B"/>
<path d="M9.75842 11.2746C10.1605 10.9973 10.9938 10.8445 11.4184 11.0787C11.2645 11.394 11.0694 11.7163 11.082 12.0616C10.7421 12.0218 10.4126 11.9872 10.0896 12.0985C9.98278 11.8225 9.87231 11.5478 9.75842 11.2746Z" fill="#615E60"/>
<path d="M9.0327 12.0385C9.02158 11.7906 8.99839 11.6021 9.07275 11.3619C9.32893 11.1941 9.38463 11.2614 9.75838 11.2746C9.87227 11.5478 9.98274 11.8225 10.0896 12.0985L9.67393 12.2841L9.68454 12.6489C9.87895 12.9182 10.3876 13.6135 10.4544 13.9013L9.97238 14.0913C9.69489 14.1633 9.45026 14.269 9.19793 14.1725C9.06505 13.9314 9.1637 13.6115 9.10013 13.2848C8.99403 12.7965 9.01773 12.5289 9.0327 12.0385Z" fill="#AFACA2"/>
<path d="M9.0327 12.0385C9.02158 11.7906 8.99839 11.6021 9.07275 11.3619C9.32893 11.1941 9.38463 11.2614 9.75838 11.2746C9.87227 11.5478 9.98274 11.8225 10.0896 12.0985L9.67393 12.2841C9.42151 12.0806 9.49578 12.0793 9.21453 12.0538C9.00412 12.3336 9.08361 12.924 9.10013 13.2848C8.99403 12.7965 9.01773 12.5289 9.0327 12.0385Z" fill="#3D3B39"/>
<path d="M9.68431 12.6488C9.87872 12.9182 10.3874 13.6135 10.4541 13.9013L9.97215 14.0913C9.55083 13.5991 9.36464 13.2756 9.68431 12.6488Z" fill="#1D1C1B"/>
<path d="M10.0897 12.0985C10.4127 11.9872 10.7422 12.0218 11.0821 12.0616C11.0587 12.5714 11.0637 13.6653 10.9536 14.0908L10.8304 14.1942C10.6211 14.1277 10.6032 14.0777 10.4545 13.9013C10.3878 13.6135 9.87909 12.9182 9.68468 12.6489L9.67407 12.2841L10.0897 12.0985Z" fill="#FDF9E9"/>
<path d="M42.1141 17.2062C43.1041 17.3691 44.3285 17.4848 45.3439 17.6177C46.5457 17.7751 48.1743 18.0547 49.3568 18.05C49.3202 18.8653 49.281 19.7867 49.0719 20.5721C47.7085 21.0126 44.0978 19.8166 42.0476 19.8831C41.9567 18.8457 41.9437 18.23 42.1141 17.2062Z" fill="#3D3B39"/>
<path d="M2.1168 28.0231C2.65141 28.4239 3.15017 29.2236 3.30642 29.8702C3.95363 30.4 3.93601 30.3443 4.37778 31.1798C4.46249 31.6232 4.50074 32.6624 4.74828 32.8835L4.7369 32.9796C4.63251 33.1689 4.08386 34.2812 4.04177 34.2998C3.42569 34.5707 3.22059 34.5853 2.72722 35.1052L2.63592 35.0715C2.53504 34.6049 2.4867 33.7993 2.52092 33.3202C2.47848 33.0121 2.47429 32.5993 2.44083 32.2718C2.30401 30.9344 0.995786 29.7991 0 28.9925C0.920138 28.6919 1.58501 28.8142 2.1168 28.0231Z" fill="#F5BA3B"/>
<path d="M3.30631 29.8702C3.95353 30.4 3.9359 30.3443 4.37768 31.1797C4.46239 31.6231 4.50063 32.6624 4.74818 32.8834L4.7368 32.9796C4.36108 33.2501 3.90749 33.6474 3.4445 33.5828C3.29117 33.4266 3.33746 33.4989 3.28894 33.2726C3.30648 32.1386 3.3123 31.0043 3.30631 29.8702Z" fill="#574219"/>
<path d="M4.73691 32.9796C4.63252 33.1689 4.08387 34.2813 4.04178 34.2998C3.4257 34.5707 3.2206 34.5854 2.72723 35.1053L2.63593 35.0716C2.53505 34.605 2.48671 33.7994 2.52093 33.3202L2.69044 33.4755C2.67623 33.7513 2.65758 34.2025 2.81442 34.4141C2.97332 34.2566 3.00138 33.4516 3.17098 33.1354L3.28906 33.2726C3.33757 33.4989 3.29128 33.4266 3.44461 33.5828C3.90761 33.6474 4.36119 33.2501 4.73691 32.9796Z" fill="#F4D48F"/>
<path d="M70.9309 52.6238C71.2608 53.0425 71.127 54.1196 71.5346 54.2671C71.9766 53.953 72.0305 53.7331 72.2267 53.2351C72.6252 55.7401 72.9877 58.2507 73.3141 60.766C72.7242 60.9935 72.3009 62.0863 71.1313 62.0422C71.3978 60.1993 71.1764 57.1063 71.1428 55.2032C71.1306 54.507 70.861 53.3225 70.9309 52.6238Z" fill="#3D3B39"/>
<path d="M72.9686 62.5976C73.1772 62.2742 73.3455 62.2546 73.7047 62.3091C74.5246 64.2558 75.8567 66.053 77.1684 67.7147C77.498 68.1323 78.6146 68.8657 78.6368 68.9967C77.7205 69.3658 77.8045 69.2257 77.5681 70.1734L77.4541 70.1451C77.0145 69.1178 76.2783 68.4716 75.5881 67.622C74.6851 66.5102 73.112 64.0331 72.9686 62.5976Z" fill="black"/>
<path d="M71.1314 62.0423C72.3011 62.0863 72.7243 60.9935 73.3143 60.7661C73.4293 61.3806 73.5147 61.7131 73.7048 62.3091C73.3457 62.2546 73.1774 62.2742 72.9688 62.5977L72.8564 62.4748C72.2675 62.837 70.1162 65.0659 69.486 65.6721L69.3802 64.0529C70.2225 63.4397 70.6476 62.9664 71.1314 62.0423Z" fill="#1D1C1B"/>
<path d="M44.7318 9.89177C45.2272 8.54856 45.9373 7.06399 46.6366 5.80256C46.8357 5.44332 47.1251 5.33465 47.4886 4.66023C47.6064 4.78995 47.6402 5.55571 47.6209 5.72666C47.4489 7.25028 45.9656 9.35177 45.8205 10.7534C45.5586 10.8205 45.6616 10.8296 45.4272 10.7362C45.2955 9.77352 45.1477 10.4076 44.7318 9.89177Z" fill="black"/>
<path d="M44.1158 11.1111C44.3307 10.714 44.531 10.297 44.7319 9.89174C45.1478 10.4076 45.2956 9.77349 45.4273 10.7362C45.6617 10.8295 45.5587 10.8205 45.8206 10.7534C45.8161 10.932 45.8378 10.8479 45.7382 11.0097C45.2503 11.1147 44.6238 11.1014 44.1158 11.1111Z" fill="#1D1C1B" fill-opacity="0.988235"/>
<path d="M7.43666 20.9945C7.72681 21.0007 7.85028 20.981 8.03271 21.2142L7.98949 21.3187L7.8211 21.3422L7.26766 21.2928L7.20435 21.1866L7.43666 20.9945Z" fill="#615E60"/>
</svg>
