<svg width="42" height="42" viewBox="0 0 42 42" fill="none" xmlns="http://www.w3.org/2000/svg">
<path d="M29.3279 32.5336V36.6573C29.3279 38.0165 28.2261 39.1183 26.8669 39.1183H7.75037C6.39119 39.1183 5.28943 38.0165 5.28943 36.6573V11.1071C5.28943 9.74788 6.39119 8.64612 7.75037 8.64612H13.4926V30.0727C13.4926 31.4319 14.5943 32.5336 15.9535 32.5336H29.3279Z" fill="#F8A709"/>
<path d="M36.7107 10.2375V30.893C36.7107 32.2522 35.6089 33.3539 34.2497 33.3539H15.1332C13.774 33.3539 12.6722 32.2522 12.6722 30.893V5.34271C12.6722 3.98354 13.774 2.88177 15.1332 2.88177H29.5707L29.6527 2.96627L29.5707 3.04584V8.90041C29.5707 9.63885 30.1693 10.2375 30.9078 10.2375H36.5466L36.6311 10.1555L36.7107 10.2375Z" fill="#471B36"/>
<path d="M36.6311 10.1555L36.5466 10.2375H30.9078C30.1693 10.2375 29.5707 9.63883 29.5707 8.90039V3.04582L29.6527 2.96625L36.6311 10.1555Z" fill="#F8A709"/>
<path d="M32.1809 20.3692H16.7902C16.3371 20.3692 15.9698 20.0019 15.9698 19.5489C15.9698 19.0958 16.3371 18.7285 16.7902 18.7285H32.1809C32.6339 18.7285 33.0012 19.0958 33.0012 19.5489C33.0012 20.0019 32.6339 20.3692 32.1809 20.3692ZM26.0039 15.7803H16.7902C16.3371 15.7803 15.9698 15.4131 15.9698 14.96C15.9698 14.507 16.3371 14.1397 16.7902 14.1397H26.0039C26.457 14.1397 26.8242 14.507 26.8242 14.96C26.8242 15.4131 26.457 15.7803 26.0039 15.7803ZM32.1809 25.291H16.7902C16.3371 25.291 15.9698 24.9238 15.9698 24.4707C15.9698 24.0177 16.3371 23.6504 16.7902 23.6504H32.1809C32.6339 23.6504 33.0012 24.0177 33.0012 24.4707C33.0012 24.9238 32.6339 25.291 32.1809 25.291Z" fill="white"/>
</svg>
