<svg width="16" height="16" viewBox="0 0 16 16" fill="none" xmlns="http://www.w3.org/2000/svg">
<mask id="mask0_443_850" style="mask-type:alpha" maskUnits="userSpaceOnUse" x="0" y="0" width="16" height="16">
<rect width="16" height="16" fill="#D9D9D9"/>
</mask>
<g mask="url(#mask0_443_850)">
<path d="M2.66634 5.33335H13.333V4.00002H2.66634V5.33335ZM1.33301 4.00002C1.33301 3.63335 1.46356 3.31946 1.72467 3.05835C1.98579 2.79724 2.29967 2.66669 2.66634 2.66669H13.333C13.6997 2.66669 14.0136 2.79724 14.2747 3.05835C14.5358 3.31946 14.6663 3.63335 14.6663 4.00002V7.33335C14.6663 7.52224 14.6025 7.68058 14.4747 7.80835C14.3469 7.93613 14.1886 8.00002 13.9997 8.00002H2.66634V12H4.73301C4.9219 12 5.08023 12.0639 5.20801 12.1917C5.33579 12.3195 5.39967 12.4778 5.39967 12.6667C5.39967 12.8556 5.33579 13.0139 5.20801 13.1417C5.08023 13.2695 4.9219 13.3334 4.73301 13.3334H2.66634C2.29967 13.3334 1.98579 13.2028 1.72467 12.9417C1.46356 12.6806 1.33301 12.3667 1.33301 12V4.00002ZM2.66634 4.00002V12V9.82502V10.8834V4.00002ZM9.96634 14.4C9.87745 14.4 9.79412 14.3834 9.71634 14.35C9.63856 14.3167 9.56634 14.2667 9.49967 14.2L7.59967 12.3C7.47745 12.1778 7.41356 12.025 7.40801 11.8417C7.40245 11.6584 7.46634 11.5 7.59967 11.3667C7.7219 11.2445 7.87467 11.1834 8.05801 11.1834C8.24134 11.1834 8.39967 11.2445 8.53301 11.3667L9.96634 12.7667L13.2497 9.48335C13.383 9.35002 13.5413 9.28613 13.7247 9.29169C13.908 9.29724 14.0663 9.36669 14.1997 9.50002C14.3219 9.63335 14.3858 9.78891 14.3913 9.96669C14.3969 10.1445 14.333 10.3 14.1997 10.4334L10.433 14.2C10.3663 14.2667 10.2941 14.3167 10.2163 14.35C10.1386 14.3834 10.0552 14.4 9.96634 14.4Z" fill="#6F6F6F"/>
</g>
</svg>
