<svg width="16" height="16" viewBox="0 0 16 16" fill="none" xmlns="http://www.w3.org/2000/svg">
<mask id="mask0_443_843" style="mask-type:alpha" maskUnits="userSpaceOnUse" x="0" y="0" width="16" height="16">
<rect width="16" height="16" fill="#D9D9D9"/>
</mask>
<g mask="url(#mask0_443_843)">
<path d="M8.48333 11.5166C8.16111 11.1944 8 10.8 8 10.3333C8 9.86665 8.16111 9.4722 8.48333 9.14998C8.80556 8.82776 9.2 8.66665 9.66667 8.66665C10.1333 8.66665 10.5278 8.82776 10.85 9.14998C11.1722 9.4722 11.3333 9.86665 11.3333 10.3333C11.3333 10.8 11.1722 11.1944 10.85 11.5166C10.5278 11.8389 10.1333 12 9.66667 12C9.2 12 8.80556 11.8389 8.48333 11.5166ZM3.33333 14.6666C2.96667 14.6666 2.65278 14.5361 2.39167 14.275C2.13056 14.0139 2 13.7 2 13.3333V3.99998C2 3.63331 2.13056 3.31942 2.39167 3.05831C2.65278 2.7972 2.96667 2.66665 3.33333 2.66665H4V1.99998C4 1.81109 4.06389 1.65276 4.19167 1.52498C4.31944 1.3972 4.47778 1.33331 4.66667 1.33331C4.85556 1.33331 5.01389 1.3972 5.14167 1.52498C5.26944 1.65276 5.33333 1.81109 5.33333 1.99998V2.66665H10.6667V1.99998C10.6667 1.81109 10.7306 1.65276 10.8583 1.52498C10.9861 1.3972 11.1444 1.33331 11.3333 1.33331C11.5222 1.33331 11.6806 1.3972 11.8083 1.52498C11.9361 1.65276 12 1.81109 12 1.99998V2.66665H12.6667C13.0333 2.66665 13.3472 2.7972 13.6083 3.05831C13.8694 3.31942 14 3.63331 14 3.99998V13.3333C14 13.7 13.8694 14.0139 13.6083 14.275C13.3472 14.5361 13.0333 14.6666 12.6667 14.6666H3.33333ZM3.33333 13.3333H12.6667V6.66665H3.33333V13.3333ZM3.33333 5.33331H12.6667V3.99998H3.33333V5.33331Z" fill="#6F6F6F"/>
</g>
</svg>
