<svg width="16" height="16" viewBox="0 0 16 16" fill="none" xmlns="http://www.w3.org/2000/svg">
<mask id="mask0_443_836" style="mask-type:alpha" maskUnits="userSpaceOnUse" x="0" y="0" width="16" height="16">
<rect width="16" height="16" fill="#D9D9D9"/>
</mask>
<g mask="url(#mask0_443_836)">
<path d="M7.06634 9.19998L5.63301 7.76665C5.51079 7.64442 5.35523 7.58331 5.16634 7.58331C4.97745 7.58331 4.8219 7.64442 4.69967 7.76665C4.57745 7.88887 4.51634 8.04442 4.51634 8.23331C4.51634 8.4222 4.57745 8.57776 4.69967 8.69998L6.59967 10.6C6.73301 10.7333 6.88856 10.8 7.06634 10.8C7.24412 10.8 7.39967 10.7333 7.53301 10.6L11.2997 6.83331C11.4219 6.71109 11.483 6.55553 11.483 6.36665C11.483 6.17776 11.4219 6.0222 11.2997 5.89998C11.1775 5.77776 11.0219 5.71665 10.833 5.71665C10.6441 5.71665 10.4886 5.77776 10.3663 5.89998L7.06634 9.19998ZM7.99967 14.6666C7.07745 14.6666 6.21079 14.4916 5.39967 14.1416C4.58856 13.7916 3.88301 13.3166 3.28301 12.7166C2.68301 12.1166 2.20801 11.4111 1.85801 10.6C1.50801 9.78887 1.33301 8.9222 1.33301 7.99998C1.33301 7.07776 1.50801 6.21109 1.85801 5.39998C2.20801 4.58887 2.68301 3.88331 3.28301 3.28331C3.88301 2.68331 4.58856 2.20831 5.39967 1.85831C6.21079 1.50831 7.07745 1.33331 7.99967 1.33331C8.9219 1.33331 9.78856 1.50831 10.5997 1.85831C11.4108 2.20831 12.1163 2.68331 12.7163 3.28331C13.3163 3.88331 13.7913 4.58887 14.1413 5.39998C14.4913 6.21109 14.6663 7.07776 14.6663 7.99998C14.6663 8.9222 14.4913 9.78887 14.1413 10.6C13.7913 11.4111 13.3163 12.1166 12.7163 12.7166C12.1163 13.3166 11.4108 13.7916 10.5997 14.1416C9.78856 14.4916 8.9219 14.6666 7.99967 14.6666Z" fill="#02806E"/>
</g>
</svg>
