<svg width="24" height="24" viewBox="0 0 24 24" fill="none" xmlns="http://www.w3.org/2000/svg">
<mask id="mask0_110_2105" style="mask-type:alpha" maskUnits="userSpaceOnUse" x="0" y="0" width="24" height="24">
<rect width="24" height="24" fill="#D9D9D9"/>
</mask>
<g mask="url(#mask0_110_2105)">
<path d="M5.30775 21.5C4.80258 21.5 4.375 21.325 4.025 20.975C3.675 20.625 3.5 20.1974 3.5 19.6923V6.30775C3.5 5.80258 3.675 5.375 4.025 5.025C4.375 4.675 4.80258 4.5 5.30775 4.5H6.69225V3.15375C6.69225 2.93458 6.76567 2.75158 6.9125 2.60475C7.05933 2.45808 7.24233 2.38475 7.4615 2.38475C7.68083 2.38475 7.86383 2.45808 8.0105 2.60475C8.15733 2.75158 8.23075 2.93458 8.23075 3.15375V4.5H15.8077V3.13475C15.8077 2.92192 15.8795 2.74367 16.023 2.6C16.1667 2.4565 16.3449 2.38475 16.5577 2.38475C16.7706 2.38475 16.9487 2.4565 17.0922 2.6C17.2359 2.74367 17.3077 2.92192 17.3077 3.13475V4.5H18.6923C19.1974 4.5 19.625 4.675 19.975 5.025C20.325 5.375 20.5 5.80258 20.5 6.30775V12.7885C20.5 13.0013 20.4282 13.1795 20.2845 13.323C20.141 13.4667 19.9628 13.5385 19.75 13.5385C19.5372 13.5385 19.359 13.4667 19.2155 13.323C19.0718 13.1795 19 13.0013 19 12.7885V10.3078H5V19.6923C5 19.7693 5.03208 19.8398 5.09625 19.9038C5.16025 19.9679 5.23075 20 5.30775 20H11.4078C11.6206 20 11.7962 20.0718 11.9345 20.2155C12.073 20.359 12.1423 20.5372 12.1423 20.75C12.1423 20.9628 12.0705 21.141 11.927 21.2845C11.7833 21.4282 11.6051 21.5 11.3923 21.5H5.30775ZM5 8.80775H19V6.30775C19 6.23075 18.9679 6.16025 18.9038 6.09625C18.8398 6.03208 18.7692 6 18.6923 6H5.30775C5.23075 6 5.16025 6.03208 5.09625 6.09625C5.03208 6.16025 5 6.23075 5 6.30775V8.80775ZM16.4962 19.8865L20.123 16.2598C20.2718 16.1109 20.4459 16.0349 20.6453 16.0318C20.8446 16.0286 21.0218 16.1046 21.177 16.2598C21.332 16.4148 21.4095 16.5929 21.4095 16.7943C21.4095 16.9956 21.332 17.1738 21.177 17.3288L17.1443 21.3673C16.9634 21.5481 16.7499 21.6385 16.5038 21.6385C16.2576 21.6385 16.0442 21.5481 15.8635 21.3673L13.8923 19.4058C13.7373 19.2571 13.6598 19.0805 13.6598 18.876C13.6598 18.6715 13.7373 18.4917 13.8923 18.3365C14.0474 18.1813 14.2257 18.1038 14.427 18.1038C14.6282 18.1038 14.8063 18.1813 14.9615 18.3365L16.4962 19.8865Z" fill="#6F6F6F"/>
</g>
</svg>
