<svg width="24" height="24" viewBox="0 0 24 24" fill="none" xmlns="http://www.w3.org/2000/svg">
<mask id="mask0_110_2135" style="mask-type:alpha" maskUnits="userSpaceOnUse" x="0" y="0" width="24" height="24">
<rect width="24" height="24" fill="#D9D9D9"/>
</mask>
<g mask="url(#mask0_110_2135)">
<path d="M3.7885 20.5C3.5325 20.5 3.31783 20.4133 3.1445 20.24C2.97133 20.0668 2.88475 19.8522 2.88475 19.596V10.4078C2.88475 10.1474 2.97133 9.93108 3.1445 9.75875C3.31783 9.58625 3.5325 9.5 3.7885 9.5H6.80775C7.06375 9.5 7.27842 9.58667 7.45175 9.76C7.62492 9.93317 7.7115 10.1478 7.7115 10.404V19.5923C7.7115 19.8526 7.62492 20.0689 7.45175 20.2413C7.27842 20.4138 7.06375 20.5 6.80775 20.5H3.7885ZM10.3973 20.5C10.1376 20.5 9.9215 20.4133 9.749 20.24C9.57667 20.0668 9.4905 19.8522 9.4905 19.596V4.404C9.4905 4.14783 9.57708 3.93317 9.75025 3.76C9.92342 3.58667 10.1381 3.5 10.3943 3.5H13.6027C13.8624 3.5 14.0785 3.58667 14.251 3.76C14.4233 3.93317 14.5095 4.14783 14.5095 4.404V19.596C14.5095 19.8522 14.4229 20.0668 14.2498 20.24C14.0766 20.4133 13.8619 20.5 13.6058 20.5H10.3973ZM17.1923 20.5C16.9363 20.5 16.7216 20.4138 16.5483 20.2413C16.3751 20.0688 16.2885 19.855 16.2885 19.6V12.3997C16.2885 12.1447 16.3751 11.9311 16.5483 11.7587C16.7216 11.5863 16.9363 11.5 17.1923 11.5H20.2115C20.4675 11.5 20.6822 11.5863 20.8555 11.7587C21.0287 11.9312 21.1152 12.145 21.1152 12.4V19.6003C21.1152 19.8552 21.0287 20.0689 20.8555 20.2413C20.6822 20.4138 20.4675 20.5 20.2115 20.5H17.1923Z" fill="#F8A709"/>
</g>
</svg>
