<svg width="24" height="24" viewBox="0 0 24 24" fill="none" xmlns="http://www.w3.org/2000/svg">
<mask id="mask0_110_4875" style="mask-type:alpha" maskUnits="userSpaceOnUse" x="0" y="0" width="24" height="24">
<rect width="24" height="24" fill="#D9D9D9"/>
</mask>
<g mask="url(#mask0_110_4875)">
<path d="M3.654 19.3078C3.15683 19.3078 2.73125 19.1308 2.37725 18.7768C2.02325 18.4228 1.84625 17.9972 1.84625 17.5V8.34626C1.84625 8.13376 1.91817 7.95559 2.062 7.81176C2.20583 7.66809 2.384 7.59626 2.5965 7.59626C2.80917 7.59626 2.98725 7.66809 3.13075 7.81176C3.27442 7.95559 3.34625 8.13376 3.34625 8.34626V17.5C3.34625 17.5768 3.37825 17.6473 3.44225 17.7115C3.50642 17.7757 3.577 17.8078 3.654 17.8078H18.423C18.6355 17.8078 18.8137 17.8797 18.9575 18.0235C19.1012 18.1672 19.173 18.3453 19.173 18.558C19.173 18.7707 19.1012 18.9488 18.9575 19.0923C18.8137 19.2359 18.6355 19.3078 18.423 19.3078H3.654ZM7.15375 15.8078C6.65675 15.8078 6.23125 15.6308 5.87725 15.2768C5.52325 14.9228 5.34625 14.4972 5.34625 14V6.42301C5.34625 5.92601 5.52325 5.50051 5.87725 5.14651C6.23125 4.79251 6.65675 4.61551 7.15375 4.61551H20.346C20.8432 4.61551 21.2688 4.79251 21.6228 5.14651C21.9768 5.50051 22.1538 5.92601 22.1538 6.42301V14C22.1538 14.4972 21.9768 14.9228 21.6228 15.2768C21.2688 15.6308 20.8432 15.8078 20.346 15.8078H7.15375ZM8.65375 14.3078C8.65375 13.8091 8.47675 13.3831 8.12275 13.0298C7.76875 12.6766 7.34325 12.5 6.84625 12.5V14C6.84625 14.0833 6.87667 14.1554 6.9375 14.2163C6.99833 14.2773 7.07042 14.3078 7.15375 14.3078H8.65375ZM18.8463 14.3078H20.346C20.4293 14.3078 20.5015 14.2773 20.5625 14.2163C20.6233 14.1554 20.6538 14.0833 20.6538 14V12.5C20.1551 12.5 19.7292 12.677 19.376 13.031C19.0228 13.385 18.8463 13.8106 18.8463 14.3078ZM13.75 12.7115C14.4487 12.7115 15.04 12.4695 15.524 11.9855C16.008 11.5015 16.25 10.9102 16.25 10.2115C16.25 9.51284 16.008 8.92151 15.524 8.43751C15.04 7.95351 14.4487 7.71151 13.75 7.71151C13.0513 7.71151 12.46 7.95351 11.976 8.43751C11.492 8.92151 11.25 9.51284 11.25 10.2115C11.25 10.9102 11.492 11.5015 11.976 11.9855C12.46 12.4695 13.0513 12.7115 13.75 12.7115ZM6.84625 7.92301C7.34492 7.92301 7.77083 7.74601 8.124 7.39201C8.47717 7.03801 8.65375 6.61251 8.65375 6.11551H7.15375C7.07042 6.11551 6.99833 6.14593 6.9375 6.20676C6.87667 6.26759 6.84625 6.33968 6.84625 6.42301V7.92301ZM20.6538 7.92301V6.42301C20.6538 6.33968 20.6233 6.26759 20.5625 6.20676C20.5015 6.14593 20.4293 6.11551 20.346 6.11551H18.8463C18.8463 6.61418 19.0233 7.04009 19.3773 7.39326C19.7313 7.74643 20.1568 7.92301 20.6538 7.92301Z" fill="#F8A709"/>
</g>
</svg>
