<svg width="24" height="24" viewBox="0 0 24 24" fill="none" xmlns="http://www.w3.org/2000/svg">
<mask id="mask0_110_4792" style="mask-type:alpha" maskUnits="userSpaceOnUse" x="0" y="0" width="24" height="24">
<rect width="24" height="24" fill="#D9D9D9"/>
</mask>
<g mask="url(#mask0_110_4792)">
<path d="M13.75 12.7115C13.0513 12.7115 12.46 12.4695 11.976 11.9855C11.492 11.5015 11.25 10.9102 11.25 10.2115C11.25 9.51284 11.492 8.9215 11.976 8.4375C12.46 7.9535 13.0513 7.7115 13.75 7.7115C14.4487 7.7115 15.04 7.9535 15.524 8.4375C16.008 8.9215 16.25 9.51284 16.25 10.2115C16.25 10.9102 16.008 11.5015 15.524 11.9855C15.04 12.4695 14.4487 12.7115 13.75 12.7115ZM7.15375 15.8078C6.65675 15.8078 6.23125 15.6308 5.87725 15.2768C5.52325 14.9228 5.34625 14.4972 5.34625 14V6.423C5.34625 5.926 5.52325 5.5005 5.87725 5.1465C6.23125 4.7925 6.65675 4.6155 7.15375 4.6155H20.346C20.8432 4.6155 21.2688 4.7925 21.6228 5.1465C21.9768 5.5005 22.1538 5.926 22.1538 6.423V14C22.1538 14.4972 21.9768 14.9228 21.6228 15.2768C21.2688 15.6308 20.8432 15.8078 20.346 15.8078H7.15375ZM8.65375 14.3078H18.8463C18.8463 13.8091 19.0233 13.3831 19.3773 13.0298C19.7313 12.6766 20.1568 12.5 20.6538 12.5V7.923C20.1551 7.923 19.7292 7.746 19.376 7.392C19.0228 7.038 18.8463 6.6125 18.8463 6.1155H8.65375C8.65375 6.61417 8.47675 7.04008 8.12275 7.39325C7.76875 7.74642 7.34325 7.923 6.84625 7.923V12.5C7.34492 12.5 7.77083 12.677 8.124 13.031C8.47717 13.385 8.65375 13.8106 8.65375 14.3078ZM18.423 19.3078H3.654C3.15683 19.3078 2.73125 19.1308 2.37725 18.7768C2.02325 18.4228 1.84625 17.9972 1.84625 17.5V8.34625C1.84625 8.13375 1.91817 7.95558 2.062 7.81175C2.20583 7.66808 2.384 7.59625 2.5965 7.59625C2.80917 7.59625 2.98725 7.66808 3.13075 7.81175C3.27442 7.95558 3.34625 8.13375 3.34625 8.34625V17.5C3.34625 17.5768 3.37825 17.6473 3.44225 17.7115C3.50642 17.7757 3.577 17.8078 3.654 17.8078H18.423C18.6355 17.8078 18.8137 17.8797 18.9575 18.0235C19.1012 18.1672 19.173 18.3453 19.173 18.558C19.173 18.7707 19.1012 18.9488 18.9575 19.0923C18.8137 19.2359 18.6355 19.3078 18.423 19.3078ZM7.15375 14.3078H6.84625V6.1155H7.15375C7.07042 6.1155 6.99833 6.14592 6.9375 6.20675C6.87667 6.26759 6.84625 6.33967 6.84625 6.423V14C6.84625 14.0833 6.87667 14.1554 6.9375 14.2163C6.99833 14.2773 7.07042 14.3078 7.15375 14.3078Z" fill="#6F6F6F"/>
</g>
</svg>
